<?xml version="1.0" encoding="UTF-8" standalone="no"?>
<svg
   version="1.1"
   viewBox="0 0 800 800"
   id="svg26"
   sodipodi:docname="logo.svg"
   inkscape:version="1.4.2 (f4327f4, 2025-05-13)"
   xmlns:inkscape="http://www.inkscape.org/namespaces/inkscape"
   xmlns:sodipodi="http://sodipodi.sourceforge.net/DTD/sodipodi-0.dtd"
   xmlns="http://www.w3.org/2000/svg"
   xmlns:svg="http://www.w3.org/2000/svg">
  <sodipodi:namedview
     id="namedview26"
     pagecolor="#ffffff"
     bordercolor="#000000"
     borderopacity="0.25"
     inkscape:showpageshadow="2"
     inkscape:pageopacity="0.0"
     inkscape:pagecheckerboard="0"
     inkscape:deskcolor="#d1d1d1"
     showgrid="false"
     inkscape:zoom="0.96625"
     inkscape:cx="399.48254"
     inkscape:cy="433.11772"
     inkscape:window-width="1920"
     inkscape:window-height="991"
     inkscape:window-x="-9"
     inkscape:window-y="-9"
     inkscape:window-maximized="1"
     inkscape:current-layer="svg26" />
  <defs
     id="defs2">
    <linearGradient
       x1="50%"
       y1="0%"
       x2="50%"
       y2="100%"
       id="ccchaos-grad">
      <stop
         stop-color="hsl(206, 75%, 49%)"
         stop-opacity="1"
         offset="0%"
         id="stop1" />
      <stop
         stop-color="hsl(331, 90%, 56%)"
         stop-opacity="1"
         offset="100%"
         id="stop2" />
    </linearGradient>
  </defs>
  <g
     stroke-width="2"
     stroke="url(#ccchaos-grad)"
     fill="none"
     stroke-linecap="round"
     id="g26">
    <path
       d="M384.04 98.55C393.53 97.46 403.21 97.4 413.09 98.33 423 99.81 433.14 102.25 443.5 105.58 453.95 109.35 464.66 113.92 475.64 119.17 486.73 124.69 498.12 130.76 509.77 137.28 521.53 143.86 533.54 150.75 545.71 157.87 557.9 164.86 570.16 171.98 582.34 179.17 594.32 186.1 606.01 193.05 617.21 200 627.87 206.61 637.74 213.23 646.57 219.84 654.47 226.12 661.04 232.44 666.08 238.82 669.91 244.9 672.06 251.1 672.46 257.44 671.71 263.55 669.35 269.87 665.54 276.4 661.13 282.78 655.78 289.43 649.84 296.38 644.32 303.23 638.99 310.4 634.28 317.93 631.12 325.38 629.31 333.21 629.16 341.41 631.27 349.58 635.31 358.14 641.23 367.1 649.23 376.04 658.66 385.41 669.08 395.19 680.35 404.98 691.26 414.99 701.23 425.19 710.37 435.41 717.6 445.85 722.56 456.48 725.6 467.15 725.99 478.04 723.76 489.09 719.44 500.2 712.75 511.47 704.01 522.86 693.8 534.27 682.17 545.76 669.54 557.25 656.42 568.67 642.98 580 629.57 591.13 616.51 602.03 603.94 612.59 592.04 622.64 580.98 632.26 570.75 641.19 561.34 649.28 552.87 656.71 545.13 663.1 538.02 668.31 528.72 674.23 512.33 678.13 504.51 676.11 499.51 673.7 494.22 670.21 488.58 665.79 483 661.24 476.96 656.18 470.41 650.84 463.84 646.07 456.73 641.52 449.07 637.47 441.36 634.66 433.11 632.77 424.34 631.97 415.53 632.83 406.22 634.95 396.43 638.31 386.65 643.25 376.65 649.06 366.5 655.47 356.39 662.79 346.16 670.13 335.88 677.2 325.68 684.32 315.46 690.61 305.3 695.82 295.26 700.36 285.33 703.46 275.57 705 265.99 705.47 256.65 704.27 247.63 701.46 238.84 697.5 230.43 692.04 222.47 685.22 214.8 677.46 207.62 668.6 200.99 658.81 194.66 648.43 188.9 637.41 183.73 625.93 178.8 614.19 174.42 602.22 170.59 590.17 166.88 578.11 163.62 566.11 160.78 554.25 157.88 542.53 155.27 531 152.92 519.72 150.3 508.63 147.82 497.76 145.44 487.13 142.66 476.68 139.92 466.41 137.2 456.34 134.06 446.38 130.96 436.55 127.95 426.85 124.61 417.22 121.45 407.66 118.56 398.18 115.55 388.73 112.97 379.32 110.91 369.98 109.01 360.64 107.85 351.57 107.47 342.78 107.45 333.99 108.3 325.5 109.99 317.32 112.13 309.14 115.12 301.3 118.9 293.81 123.07 286.33 127.94 279.22 133.43 272.5 139.14 265.8 145.34 259.48 151.93 253.57 158.52 247.64 165.37 242.1 172.4 236.94 179.23 231.72 186.15 226.84 193.1 222.27 199.73 217.57 206.36 213.11 212.97 208.88 219.23 204.41 225.5 200.08 231.79 195.87 237.77 191.31 243.83 186.8 250.01 182.3 255.94 177.4 262.06 172.47 268.4 167.52 274.57 162.15 281.02 156.77 287.77 151.41 294.42 145.71 301.41 140.11 308.75 134.67 316.02 129.06 323.67 123.74 331.68 118.81 339.65 113.96 348 109.65 356.73 106 365.44 102.67 374.53 100.15 384.03 98.55"
       stroke-dasharray="5 11"
       opacity="1.00"
       id="path2"
       transform="rotate(0, 400, 400)" />
    <path
       d="M390.96 108.93C400.25 107.83 409.75 107.72 419.47 108.56 429.22 109.93 439.21 112.23 449.43 115.38 459.72 118.98 470.27 123.35 481.05 128.39 491.91 133.72 503.01 139.59 514.3 145.93 525.64 152.35 537.13 159.1 548.67 166.11 560.15 173.02 571.57 180.09 582.77 187.26 593.7 194.21 604.2 201.2 614.1 208.21 623.42 214.93 631.87 221.65 639.25 228.38 645.74 234.8 650.92 241.25 654.65 247.74 657.32 253.96 658.46 260.26 658.03 266.68 656.69 272.88 653.97 279.24 650.05 285.79 645.76 292.17 640.77 298.8 635.38 305.68 630.53 312.45 625.97 319.53 622.1 326.91 619.72 334.22 618.62 341.88 619.05 349.9 621.56 357.86 625.78 366.21 631.68 374.95 639.44 383.66 648.46 392.78 658.34 402.31 669 411.84 679.32 421.58 688.79 431.5 697.56 441.45 704.62 451.59 709.65 461.91 712.99 472.26 713.92 482.78 712.45 493.44 709.07 504.12 703.46 514.92 695.87 525.78 686.85 536.63 676.38 547.48 664.83 558.26 652.65 568.94 639.97 579.44 627.14 589.67 614.44 599.64 602.02 609.2 590.07 618.2 578.75 626.76 568.09 634.61 558.13 641.59 548.97 647.96 540.48 653.31 532.6 657.55 525.42 661.04 518.7 663.33 512.3 664.37 506.4 664.68 500.64 663.81 494.89 661.78 489.43 659.26 483.83 655.82 477.98 651.6 472.26 647.35 466.18 642.69 459.72 637.84 453.27 633.58 446.37 629.57 439.01 626.04 431.63 623.67 423.77 622.15 415.45 621.62 407.1 622.6 398.29 624.71 389.05 627.93 379.81 632.59 370.38 638.03 360.83 644.01 351.3 650.83 341.69 657.7 332.05 664.34 322.48 671.08 312.92 677.1 303.45 682.19 294.09 686.72 284.87 689.98 275.85 691.84 267 692.78 258.41 692.2 250.15 690.13 242.11 687.04 234.46 682.52 227.26 676.71 220.31 670.02 213.84 662.22 207.91 653.48 202.22 644.14 197.06 634.1 192.45 623.54 188.03 612.65 184.11 601.45 180.67 590.07 177.29 578.6 174.32 567.1 171.7 555.66 168.97 544.29 166.49 533.04 164.22 521.98 161.66 511.05 159.2 500.31 156.81 489.78 154.02 479.39 151.24 469.19 148.48 459.19 145.29 449.29 142.15 439.54 139.08 429.96 135.69 420.43 132.47 411.02 129.52 401.73 126.45 392.47 123.79 383.3 121.65 374.24 119.66 365.19 118.39 356.44 117.88 348.02 117.73 339.59 118.42 331.48 119.95 323.7 121.92 315.92 124.72 308.48 128.31 301.39 132.28 294.31 136.97 287.58 142.28 281.24 147.82 274.88 153.88 268.88 160.34 263.27 166.85 257.61 173.64 252.3 180.63 247.33 187.48 242.26 194.43 237.5 201.45 233 208.18 228.34 214.94 223.9 221.68 219.63 228.1 215.11 234.52 210.71 240.95 206.39 247.08 201.73 253.26 197.09 259.53 192.47 265.54 187.45 271.7 182.42 278.04 177.37 284.19 171.93 290.58 166.5 297.23 161.11 303.75 155.42 310.58 149.83 317.73 144.43 324.8 138.89 332.22 133.66 340 128.81 347.73 124.05 355.84 119.83 364.33 116.26 372.8 113 381.67 110.52 390.95 108.93"
       stroke-dasharray="10 2"
       transform="rotate(4.04, 400, 400)"
       opacity="0.96"
       id="path3" />
    <path
       d="M398.45 119.31C407.53 118.2 416.83 118.04 426.35 118.8 435.89 120.06 445.66 122.21 455.65 125.19 465.68 128.6 475.94 132.75 486.38 137.58 496.87 142.69 507.53 148.35 518.31 154.48 529.07 160.71 539.88 167.3 550.64 174.16 561.27 180.97 571.71 187.96 581.83 195.07 591.61 202 600.88 209 609.46 216.04 617.45 222.83 624.52 229.63 630.53 236.44 635.71 242.98 639.65 249.55 642.24 256.15 643.92 262.49 644.22 268.91 643.17 275.41 641.41 281.7 638.51 288.13 634.63 294.72 630.57 301.14 626.01 307.77 621.22 314.62 617.07 321.35 613.29 328.36 610.21 335.64 608.57 342.85 608.12 350.37 609.08 358.22 611.91 366.02 616.29 374.17 622.14 382.69 629.65 391.18 638.25 400.06 647.61 409.32 657.67 418.59 667.41 428.04 676.38 437.66 684.78 447.29 691.64 457.09 696.69 467.03 700.26 476.99 701.65 487.09 700.86 497.27 698.35 507.46 693.75 517.71 687.26 527.96 679.41 538.16 670.09 548.31 659.63 558.32 648.46 568.19 636.66 577.82 624.53 587.11 612.37 596.13 600.29 604.68 588.48 612.65 577.12 620.18 566.25 626.98 555.95 632.93 546.29 638.31 537.22 642.72 528.7 646.08 520.82 648.78 513.39 650.39 506.32 650.86 499.74 650.74 493.36 649.56 487.09 647.37 481.14 644.83 475.14 641.5 469.02 637.52 463.05 633.6 456.85 629.36 450.37 625.01 443.94 621.25 437.16 617.75 430.01 614.71 422.86 612.76 415.32 611.58 407.37 611.29 399.42 612.38 391.07 614.47 382.35 617.55 373.62 621.94 364.75 627.02 355.79 632.58 346.86 638.93 337.87 645.33 328.89 651.55 319.97 657.91 311.1 663.64 302.34 668.56 293.68 673.04 285.19 676.39 276.92 678.51 268.82 679.84 260.98 679.79 253.49 678.38 246.2 676.07 239.29 672.42 232.82 667.55 226.57 661.86 220.79 655.09 215.5 647.39 210.41 639.09 205.81 630.05 201.7 620.43 197.73 610.46 194.2 600.09 191.1 589.46 188.01 578.7 185.25 567.81 182.81 556.9 180.21 545.99 177.82 535.14 175.58 524.42 173.04 513.77 170.58 503.27 168.15 492.95 165.33 482.73 162.5 472.69 159.68 462.84 156.46 453.07 153.26 443.46 150.13 434.03 146.7 424.65 143.44 415.42 140.43 406.34 137.32 397.28 134.6 388.35 132.38 379.57 130.31 370.79 128.95 362.35 128.32 354.25 128.04 346.14 128.58 338.37 129.93 330.94 131.72 323.51 134.32 316.41 137.69 309.68 141.46 302.92 145.93 296.51 151.02 290.47 156.38 284.39 162.25 278.65 168.55 273.26 174.93 267.8 181.62 262.65 188.54 257.8 195.37 252.84 202.33 248.14 209.37 243.66 216.19 239.01 223.03 234.53 229.89 230.19 236.46 225.6 243.03 221.1 249.6 216.66 255.89 211.89 262.22 207.13 268.6 202.38 274.74 197.27 280.99 192.14 287.38 187 293.58 181.52 299.97 176.06 306.59 170.65 313.07 164.98 319.82 159.44 326.85 154.09 333.8 148.65 341.07 143.5 348.67 138.75 356.22 134.1 364.14 129.99 372.43 126.5 380.7 123.31 389.36 120.89 398.44 119.31"
       stroke-dasharray="10 6"
       transform="rotate(8.08, 400, 400)"
       opacity="0.92"
       id="path4" />
    <path
       d="M406.03 129.69C414.89 128.58 423.96 128.37 433.22 129.04 442.49 130.19 451.97 132.19 461.63 134.99 471.31 138.2 481.17 142.14 491.16 146.74 501.15 151.61 511.24 157.04 521.36 162.94 531.42 168.97 541.42 175.36 551.28 182.04 560.95 188.71 570.34 195.58 579.31 202.59 587.92 209.48 595.94 216.45 603.22 223.47 609.93 230.29 615.72 237.14 620.47 244.01 624.48 250.64 627.33 257.3 628.95 263.99 629.82 270.45 629.49 276.96 628 283.55 625.98 289.94 623.04 296.44 619.33 303.07 615.61 309.54 611.54 316.19 607.4 323.03 603.95 329.75 600.93 336.71 598.61 343.91 597.65 351.03 597.8 358.44 599.22 366.14 602.34 373.79 606.82 381.76 612.6 390.06 619.84 398.34 628.04 406.97 636.88 415.95 646.35 424.94 655.52 434.07 664.01 443.34 672.01 452.62 678.65 462.04 683.68 471.55 687.42 481.07 689.21 490.67 689.02 500.32 687.29 509.95 683.62 519.59 678.18 529.17 671.44 538.67 663.26 548.06 653.91 557.25 643.79 566.28 632.95 575.02 621.63 583.37 610.15 591.44 598.57 599.01 587.1 605.96 575.89 612.51 565.02 618.33 554.57 623.33 544.62 627.81 535.16 631.37 526.18 633.96 517.74 635.99 509.73 637.01 502.09 637.03 494.9 636.57 487.96 635.18 481.19 632.93 474.74 630.43 468.33 627.27 461.9 623.57 455.64 620 449.26 616.2 442.69 612.34 436.2 609.07 429.46 606.06 422.45 603.49 415.46 601.93 408.16 601.06 400.54 600.98 392.92 602.16 384.98 604.23 376.74 607.17 368.5 611.3 360.17 616.03 351.79 621.18 343.43 627.08 335.07 633.03 326.74 638.82 318.47 644.78 310.29 650.22 302.24 654.94 294.29 659.33 286.53 662.72 279.01 665.03 271.63 666.66 264.54 667.07 257.79 666.24 251.22 664.61 245.02 661.76 239.24 657.76 233.65 653.01 228.48 647.22 223.78 640.51 219.23 633.23 215.12 625.19 211.46 616.53 207.87 607.5 204.68 598.02 201.85 588.21 198.98 578.21 196.4 568.02 194.08 557.74 191.56 547.41 189.21 537.06 186.98 526.78 184.43 516.53 181.93 506.37 179.45 496.36 176.58 486.42 173.69 476.62 170.81 467 167.54 457.44 164.29 448.04 161.11 438.82 157.65 429.64 154.36 420.62 151.3 411.76 148.16 402.93 145.4 394.25 143.11 385.74 140.98 377.23 139.53 369.08 138.79 361.27 138.39 353.46 138.77 345.99 139.95 338.87 141.55 331.73 143.94 324.93 147.08 318.48 150.61 312 154.84 305.85 159.7 300.04 164.83 294.17 170.49 288.63 176.58 283.39 182.8 278.08 189.35 273.03 196.15 268.26 202.91 263.35 209.83 258.66 216.86 254.16 223.71 249.48 230.62 244.93 237.56 240.51 244.25 235.83 250.95 231.21 257.66 226.64 264.1 221.76 270.58 216.89 277.1 212.03 283.38 206.83 289.75 201.62 296.23 196.42 302.52 190.91 308.96 185.44 315.59 180.03 322.09 174.41 328.81 168.93 335.78 163.66 342.66 158.32 349.83 153.28 357.31 148.65 364.73 144.12 372.5 140.11 380.61 136.72 388.7 133.62 397.16 131.25 406.02 129.69"
       stroke-dasharray="10 1"
       transform="rotate(12.12, 400, 400)"
       opacity="0.89"
       id="path5" />
    <path
       d="M413.24 140.07C421.86 138.96 430.66 138.71 439.6 139.29 448.55 140.33 457.67 142.18 466.91 144.79 476.15 147.81 485.51 151.52 494.93 155.87 504.32 160.51 513.74 165.68 523.09 171.33 532.35 177.12 541.46 183.29 550.34 189.77 559 196.26 567.29 202.97 575.11 209.85 582.55 216.64 589.35 223.54 595.4 230.51 600.92 237.32 605.54 244.18 609.17 251.07 612.17 257.75 614.11 264.47 614.95 271.22 615.19 277.76 614.4 284.36 612.64 291.01 610.53 297.48 607.68 304.05 604.25 310.72 600.94 317.24 597.43 323.91 593.95 330.74 591.19 337.46 588.9 344.38 587.3 351.51 586.97 358.57 587.66 365.87 589.49 373.42 592.84 380.94 597.38 388.73 603.05 396.81 610.02 404.87 617.81 413.24 626.14 421.92 635.05 430.6 643.67 439.4 651.67 448.29 659.27 457.18 665.67 466.17 670.63 475.21 674.5 484.24 676.61 493.31 676.95 502.37 675.91 511.39 673.09 520.37 668.62 529.23 662.94 538.01 655.86 546.61 647.61 554.96 638.57 563.14 628.73 570.98 618.32 578.4 607.62 585.54 596.69 592.16 585.72 598.17 574.86 603.8 564.18 608.72 553.78 612.85 543.75 616.52 534.09 619.35 524.84 621.27 516.02 622.73 507.58 623.3 499.5 622.96 491.81 622.26 484.39 620.75 477.2 618.51 470.29 616.11 463.49 613.16 456.75 609.78 450.19 606.59 443.59 603.23 436.91 599.84 430.32 597.04 423.57 594.5 416.64 592.36 409.75 591.16 402.63 590.58 395.29 590.7 387.96 591.96 380.38 593.99 372.58 596.79 364.78 600.66 356.95 605.06 349.13 609.82 341.33 615.28 333.56 620.78 325.88 626.16 318.24 631.73 310.72 636.85 303.37 641.35 296.1 645.61 289.05 648.99 282.25 651.42 275.56 653.29 269.18 654.07 263.13 653.74 257.22 652.72 251.68 650.57 246.54 647.36 241.53 643.47 236.93 638.6 232.75 632.84 228.66 626.53 224.98 619.47 221.69 611.77 218.41 603.69 215.48 595.12 212.87 586.17 210.16 577.01 207.7 567.58 205.44 558 202.97 548.33 200.62 538.58 198.36 528.83 195.78 519.08 193.22 509.37 190.68 499.75 187.74 490.18 184.8 480.71 181.84 471.4 178.53 462.12 175.23 453 172.01 444.04 168.53 435.11 165.21 426.34 162.13 417.74 158.97 409.17 156.18 400.75 153.85 392.51 151.67 384.26 150.14 376.38 149.29 368.85 148.77 361.31 149.01 354.11 150 347.25 151.4 340.37 153.57 333.81 156.47 327.59 159.76 321.33 163.73 315.39 168.31 309.75 173.19 304.06 178.6 298.65 184.46 293.52 190.47 288.29 196.83 283.3 203.47 278.55 210.11 273.65 216.94 268.94 223.91 264.4 230.75 259.65 237.68 255.03 244.65 250.5 251.42 245.72 258.22 240.99 265.03 236.3 271.61 231.32 278.22 226.35 284.86 221.38 291.29 216.11 297.79 210.85 304.36 205.6 310.76 200.09 317.29 194.63 323.96 189.26 330.5 183.7 337.24 178.31 344.19 173.13 351.04 167.91 358.15 163 365.53 158.49 372.85 154.1 380.48 150.21 388.43 146.92 396.35 143.92 404.61 141.61 413.23 140.07"
       stroke-dasharray="1 7"
       transform="rotate(16.16, 400, 400)"
       opacity="0.85"
       id="path6" />
    <path
       d="M419.63 150.45C427.98 149.34 436.45 149.05 445.03 149.55 453.61 150.47 462.29 152.17 471.03 154.6 479.77 157.41 488.54 160.9 497.31 164.99 506.03 169.37 514.68 174.28 523.19 179.66 531.59 185.2 539.77 191.12 547.63 197.35 555.27 203.63 562.48 210.15 569.16 216.86 575.48 223.51 581.15 230.3 586.07 237.18 590.52 243.93 594.11 250.75 596.79 257.61 598.93 264.31 600.14 271.04 600.38 277.81 600.17 284.41 599.1 291.05 597.23 297.74 595.16 304.27 592.52 310.88 589.45 317.58 586.61 324.14 583.69 330.82 580.88 337.64 578.81 344.35 577.21 351.23 576.28 358.28 576.52 365.27 577.69 372.46 579.86 379.87 583.4 387.24 587.97 394.85 593.51 402.7 600.19 410.53 607.57 418.63 615.41 426.99 623.76 435.35 631.84 443.77 639.35 452.25 646.56 460.73 652.69 469.25 657.56 477.77 661.49 486.28 663.87 494.78 664.64 503.21 664.22 511.6 662.17 519.89 658.59 528.01 653.9 536.04 647.88 543.84 640.71 551.35 632.75 558.69 623.94 565.66 614.5 572.18 604.67 578.44 594.5 584.18 584.16 589.3 573.81 594.09 563.51 598.19 553.35 601.55 543.43 604.53 533.77 606.72 524.43 608.1 515.41 609.09 506.72 609.3 498.35 608.72 490.31 607.86 482.53 606.31 474.99 604.14 467.72 601.9 460.59 599.21 453.58 596.17 446.75 593.36 439.94 590.43 433.14 587.52 426.43 585.17 419.64 583.07 412.77 581.34 405.94 580.47 398.98 580.15 391.87 580.44 384.78 581.76 377.52 583.75 370.13 586.41 362.73 590.03 355.36 594.11 348.07 598.5 340.78 603.53 333.58 608.61 326.5 613.57 319.46 618.75 312.57 623.54 305.88 627.8 299.25 631.89 292.86 635.22 286.73 637.71 277.82 640.29 261.76 639.64 254.7 636.37 250.21 633.27 246.09 629.24 242.35 624.37 238.66 618.98 235.32 612.86 232.32 606.11 229.3 598.97 226.56 591.31 224.1 583.25 221.5 574.94 219.1 566.33 216.87 557.5 214.4 548.55 212.02 539.47 209.7 530.34 207.06 521.16 204.44 511.98 201.81 502.85 198.81 493.72 195.8 484.67 192.78 475.73 189.42 466.82 186.09 458.03 182.84 449.39 179.35 440.77 176.02 432.29 172.92 423.98 169.76 415.69 166.95 407.54 164.58 399.58 162.36 391.61 160.77 383.99 159.82 376.71 159.19 369.43 159.28 362.47 160.1 355.84 161.3 349.18 163.24 342.84 165.89 336.81 168.92 330.73 172.61 324.94 176.9 319.44 181.5 313.86 186.62 308.54 192.21 303.47 197.97 298.29 204.1 293.33 210.52 288.57 217 283.65 223.69 278.89 230.54 274.28 237.32 269.46 244.2 264.74 251.16 260.11 257.96 255.23 264.8 250.4 271.67 245.59 278.35 240.53 285.07 235.47 291.8 230.42 298.36 225.11 304.96 219.81 311.63 214.55 318.14 209.06 324.75 203.64 331.47 198.32 338.07 192.86 344.83 187.57 351.76 182.51 358.61 177.43 365.67 172.66 372.96 168.29 380.2 164.04 387.7 160.29 395.47 157.1 403.22 154.2 411.27 151.96 419.62 150.45"
       stroke-dasharray="10 3"
       transform="rotate(20.200000000000003, 400, 400)"
       opacity="0.81"
       id="path7" />
    <path
       d="M424.79 160.83C432.84 159.73 440.95 159.4 449.11 159.82 457.26 160.63 465.45 162.18 473.64 164.42 481.81 167.03 489.95 170.27 498 174.1 505.99 178.22 513.84 182.85 521.48 187.94 529 193.2 536.23 198.85 543.09 204.81 549.72 210.85 555.89 217.15 561.51 223.64 566.8 230.11 571.44 236.74 575.36 243.47 578.87 250.12 581.59 256.85 583.48 263.64 584.96 270.3 585.6 277.01 585.43 283.75 584.94 290.35 583.74 297 581.89 303.69 579.98 310.25 577.64 316.88 575.01 323.57 572.69 330.14 570.37 336.82 568.22 343.59 566.81 350.28 565.86 357.11 565.54 364.07 566.3 370.98 567.87 378.05 570.34 385.29 574.01 392.51 578.57 399.92 583.96 407.52 590.35 415.11 597.32 422.92 604.67 430.93 612.48 438.95 620.03 446.99 627.08 455.02 633.87 463.06 639.73 471.09 644.47 479.07 648.42 487.03 650.99 494.93 652.14 502.72 652.24 510.46 650.88 518.04 648.12 525.42 644.34 532.7 639.32 539.72 633.18 546.41 626.28 552.94 618.51 559.07 610.06 564.75 601.18 570.19 591.86 575.1 582.27 579.43 572.56 583.46 562.78 586.85 553.04 589.55 543.41 591.92 533.94 593.59 524.69 594.53 515.67 595.17 506.9 595.11 498.41 594.37 490.17 593.44 482.18 591.93 474.42 589.89 466.88 587.85 459.52 585.45 452.31 582.77 445.25 580.34 438.29 577.84 431.38 575.38 424.57 573.46 417.76 571.77 410.93 570.41 404.15 569.84 397.31 569.75 390.41 570.2 383.53 571.56 376.56 573.51 369.53 576.03 362.49 579.41 355.55 583.18 348.73 587.22 341.92 591.84 335.24 596.49 328.72 601.06 322.23 605.85 315.92 610.3 309.83 614.3 303.79 618.2 297.99 621.43 292.47 623.94 284.43 626.74 270 627.23 263.67 624.85 257.76 620.81 247.6 607.99 243.29 599.51 240.44 593.29 237.84 586.54 235.46 579.35 232.92 571.91 230.54 564.14 228.28 556.1 225.78 547.92 223.35 539.57 220.96 531.1 218.24 522.57 215.53 513.98 212.82 505.39 209.75 496.79 206.68 488.22 203.6 479.73 200.21 471.24 196.85 462.85 193.58 454.57 190.09 446.31 186.76 438.17 183.66 430.18 180.51 422.19 177.7 414.35 175.32 406.66 173.07 398.98 171.42 391.62 170.39 384.59 169.65 377.55 169.6 370.82 170.24 364.39 171.25 357.93 172.96 351.77 175.34 345.89 178.1 339.96 181.49 334.29 185.48 328.88 189.77 323.39 194.58 318.13 199.86 313.09 205.33 307.94 211.18 302.97 217.35 298.17 223.6 293.22 230.1 288.4 236.77 283.7 243.43 278.82 250.21 274.01 257.08 269.27 263.85 264.31 270.69 259.38 277.56 254.49 284.28 249.36 291.05 244.24 297.83 239.14 304.47 233.81 311.15 228.51 317.88 223.26 324.48 217.82 331.15 212.47 337.91 207.23 344.56 201.89 351.33 196.72 358.25 191.8 365.08 186.87 372.09 182.26 379.28 178.04 386.43 173.95 393.79 170.34 401.37 167.27 408.93 164.48 416.73 162.31 424.78 160.83"
       stroke-dasharray="7 7"
       transform="rotate(24.24, 400, 400)"
       opacity="0.77"
       id="path8" />
    <path
       d="M428.41 171.21C436.12 170.12 443.84 169.76 451.53 170.1 459.22 170.81 466.87 172.2 474.46 174.26 482.02 176.65 489.48 179.66 496.79 183.22 504.03 187.06 511.07 191.4 517.84 196.19 524.49 201.15 530.79 206.5 536.69 212.18 542.38 217.94 547.59 223.97 552.24 230.21 556.61 236.46 560.35 242.88 563.42 249.43 566.15 255.92 568.17 262.52 569.46 269.18 570.43 275.75 570.69 282.38 570.26 289.05 569.64 295.61 568.45 302.22 566.75 308.87 565.09 315.41 563.13 322 560.99 328.65 559.2 335.2 557.49 341.84 555.98 348.54 555.19 355.18 554.84 361.92 555.07 368.77 556.28 375.57 558.21 382.5 560.92 389.57 564.68 396.6 569.2 403.79 574.41 411.13 580.49 418.46 587.06 425.95 593.94 433.6 601.22 441.25 608.26 448.87 614.84 456.45 621.22 464.02 626.78 471.54 631.36 478.96 635.28 486.37 638 493.66 639.45 500.79 640 507.88 639.23 514.77 637.2 521.41 634.27 527.96 630.16 534.22 625.01 540.13 619.13 545.89 612.39 551.25 604.94 556.15 597.03 560.84 588.62 565.02 579.86 568.64 570.91 572.01 561.79 574.78 552.6 576.92 543.43 578.8 534.32 580.05 525.33 580.65 516.49 581.03 507.82 580.8 499.37 579.99 491.1 579.06 483.04 577.64 475.2 575.79 467.53 573.98 460.04 571.88 452.73 569.57 445.54 567.53 438.48 565.45 431.52 563.42 424.65 561.9 417.83 560.59 411.07 559.58 404.34 559.28 397.63 559.4 390.92 559.98 384.23 561.37 377.53 563.27 370.82 565.65 364.12 568.8 357.56 572.27 351.18 575.96 344.79 580.19 338.58 584.45 332.57 588.62 326.56 593.03 320.78 597.14 315.22 600.87 307.06 606.09 292.14 613.04 285.44 614.44 279.09 614.44 267.96 609.74 263.15 605.13 258.56 599.19 250.5 583.68 246.88 574.42 244.35 567.84 241.95 560.91 239.64 553.67 237.08 546.29 234.57 538.68 232.08 530.93 229.29 523.08 226.49 515.14 223.69 507.15 220.56 499.13 217.43 491.1 214.3 483.11 210.88 475.11 207.51 467.16 204.23 459.29 200.76 451.44 197.45 443.67 194.37 436.03 191.24 428.39 188.44 420.87 186.05 413.48 183.79 406.09 182.1 399 180.99 392.21 180.16 385.41 179.97 378.89 180.44 372.65 181.25 366.38 182.73 360.37 184.85 354.62 187.33 348.82 190.42 343.25 194.08 337.9 198.04 332.48 202.52 327.26 207.45 322.23 212.6 317.08 218.14 312.1 224.01 307.25 229.98 302.27 236.22 297.39 242.67 292.61 249.13 287.66 255.74 282.78 262.47 277.95 269.14 272.92 275.9 267.93 282.7 262.97 289.41 257.8 296.16 252.65 302.94 247.53 309.6 242.22 316.31 236.94 323.05 231.74 329.69 226.38 336.38 221.11 343.14 215.99 349.81 210.78 356.57 205.77 363.43 201 370.23 196.25 377.16 191.81 384.23 187.75 391.26 183.83 398.46 180.37 405.82 177.43 413.16 174.74 420.69 172.65 428.4 171.21"
       stroke-dasharray="11 4"
       transform="rotate(28.28, 400, 400)"
       opacity="0.73"
       id="path9" />
    <path
       d="M430.27 181.59C437.6 180.52 444.88 180.12 452.08 180.39 459.27 180.99 466.36 182.24 473.33 184.11 480.26 186.29 487.03 189.06 493.6 192.35 500.1 195.91 506.34 199.95 512.28 204.42 518.09 209.07 523.53 214.11 528.55 219.46 533.39 224.92 537.74 230.66 541.55 236.61 545.12 242.6 548.12 248.77 550.49 255.08 552.6 261.38 554.09 267.78 554.93 274.26 555.56 280.69 555.6 287.18 555.07 293.73 554.45 300.19 553.38 306.7 551.93 313.26 550.6 319.72 549.07 326.24 547.44 332.8 546.2 339.29 545.07 345.83 544.18 352.44 543.95 358.98 544.16 365.61 544.88 372.31 546.47 378.97 548.69 385.73 551.58 392.59 555.39 399.42 559.83 406.37 564.86 413.42 570.62 420.46 576.79 427.62 583.21 434.88 589.98 442.14 596.51 449.33 602.63 456.43 608.61 463.53 613.86 470.52 618.26 477.38 622.11 484.23 624.91 490.91 626.59 497.4 627.51 503.84 627.26 510.06 625.88 516.01 623.69 521.86 620.43 527.4 616.19 532.59 611.28 537.64 605.53 542.28 599.07 546.48 592.15 550.5 584.69 554.04 576.81 557.05 568.7 559.85 560.33 562.11 551.81 563.81 543.24 565.29 534.63 566.22 526.06 566.58 517.56 566.78 509.16 566.47 500.91 565.66 492.78 564.79 484.81 563.51 477.03 561.87 469.38 560.33 461.89 558.55 454.57 556.61 447.36 554.95 440.29 553.27 433.35 551.65 426.48 550.5 419.71 549.54 413.03 548.85 406.39 548.79 399.81 549.09 393.3 549.78 386.79 551.19 380.34 553.03 373.93 555.27 367.53 558.19 361.32 561.38 355.32 564.75 349.32 568.6 343.52 572.47 337.95 576.26 332.38 580.29 327.04 584.07 321.95 587.51 314.46 592.42 300.82 599.25 294.71 600.89 283.75 599.71 269.75 589.59 265.82 583.52 263.15 578.98 260.64 573.93 258.27 568.43 255.72 562.69 253.25 556.57 250.87 550.14 248.23 543.55 245.63 536.71 243.04 529.68 240.17 522.55 237.29 515.29 234.4 507.94 231.22 500.54 228.03 493.09 224.86 485.63 221.44 478.16 218.07 470.7 214.8 463.29 211.36 455.88 208.08 448.52 205.03 441.25 201.94 433.99 199.17 426.81 196.79 419.73 194.52 412.66 192.8 405.85 191.63 399.3 190.7 392.74 190.39 386.43 190.7 380.37 191.32 374.28 192.57 368.42 194.43 362.78 196.62 357.1 199.39 351.61 202.72 346.32 206.34 340.96 210.46 335.77 215.03 330.73 219.82 325.6 225 320.59 230.52 315.71 236.17 310.7 242.1 305.77 248.26 300.93 254.46 295.93 260.85 290.99 267.36 286.1 273.86 281.03 280.46 276 287.13 271 293.74 265.83 300.4 260.68 307.11 255.58 313.73 250.32 320.39 245.11 327.09 239.98 333.7 234.73 340.36 229.59 347.07 224.6 353.7 219.56 360.41 214.71 367.18 210.11 373.9 205.56 380.72 201.31 387.63 197.42 394.51 193.68 401.5 190.38 408.61 187.57 415.7 185 422.92 182.99 430.26 181.59"
       stroke-dasharray="3 6"
       transform="rotate(32.32, 400, 400)"
       opacity="0.70"
       id="path10" />
    <path
       d="M430.24 191.97C437.17 190.92 443.98 190.5 450.66 190.69 457.33 191.19 463.85 192.3 470.19 193.98 476.5 195.96 482.6 198.48 488.45 201.5 494.23 204.77 499.72 208.5 504.88 212.65 509.93 216.98 514.59 221.68 518.83 226.69 522.92 231.83 526.53 237.24 529.64 242.87 532.56 248.56 534.95 254.45 536.79 260.48 538.45 266.52 539.56 272.68 540.12 278.94 540.56 285.16 540.51 291.47 540.01 297.83 539.5 304.14 538.65 310.5 537.52 316.9 536.57 323.24 535.5 329.63 534.39 336.05 533.69 342.41 533.13 348.83 532.8 355.28 533.1 361.69 533.79 368.15 534.93 374.67 536.85 381.16 539.31 387.71 542.33 394.32 546.14 400.92 550.48 407.59 555.29 414.33 560.74 421.06 566.51 427.86 572.47 434.71 578.74 441.57 584.79 448.31 590.46 454.93 596.03 461.54 600.97 468.01 605.16 474.32 608.91 480.6 611.73 486.69 613.59 492.56 614.9 501.17 611.39 516.89 606.74 523.85 602.73 528.26 597.92 532.27 592.42 535.86 586.46 539.3 579.95 542.28 573 544.78 565.76 547.12 558.22 548.97 550.46 550.31 542.59 551.5 534.61 552.19 526.59 552.4 518.57 552.51 510.59 552.18 502.69 551.43 494.85 550.67 487.13 549.57 479.54 548.19 472.05 546.92 464.69 545.47 457.49 543.9 450.37 542.6 443.38 541.3 436.54 540.05 429.76 539.25 423.09 538.62 416.54 538.2 410.03 538.36 403.62 538.82 397.3 539.6 391 541.02 384.79 542.78 378.66 544.89 372.54 547.59 366.65 550.51 360.99 553.57 355.33 557.06 349.89 560.56 344.7 563.99 337.02 569.37 322.91 578.79 316.49 582.45 304.78 586.68 289.58 585.91 285.28 583.08 281.04 579.2 273.24 568.24 269.55 561.36 266.94 556.42 264.4 551.09 261.92 545.43 259.19 539.63 256.49 533.54 253.8 527.24 250.85 520.84 247.89 514.27 244.93 507.57 241.7 500.82 238.48 493.98 235.29 487.09 231.88 480.18 228.52 473.24 225.27 466.31 221.88 459.38 218.66 452.46 215.65 445.6 212.62 438.73 209.89 431.92 207.52 425.17 205.27 418.43 203.52 411.9 202.3 405.61 201.3 399.3 200.87 393.21 201.02 387.33 201.97 378.56 207.21 361.92 211.42 353.99 214.69 348.69 218.43 343.53 222.62 338.5 227.03 333.39 231.82 328.37 236.96 323.46 242.24 318.44 247.82 313.48 253.63 308.6 259.52 303.58 265.6 298.62 271.83 293.69 278.09 288.62 284.46 283.59 290.92 278.59 297.35 273.45 303.86 268.35 310.4 263.3 316.91 258.12 323.45 253.01 330.03 247.99 336.55 242.88 343.11 237.9 349.69 233.07 356.23 228.21 362.82 223.56 369.44 219.16 376.03 214.8 382.68 210.75 389.38 207.06 396.07 203.5 402.82 200.36 409.63 197.69 416.43 195.24 423.31 193.32 430.23 191.97"
       stroke-dasharray="5 9"
       transform="rotate(36.36, 400, 400)"
       opacity="0.66"
       id="path11" />
    <path
       d="M428.34 202.35C434.83 201.32 441.16 200.88 447.32 201 453.46 201.41 459.41 202.38 465.14 203.88 476.51 207.68 486.84 213.46 495.86 220.9 504.5 229.05 511.56 238.54 516.81 249.03 521.5 259.8 524.32 271.3 525.27 283.25 525.99 295.17 525.3 307.43 523.63 319.84 522.8 332.11 522 344.56 521.86 357.09 523.97 369.5 527.65 382.09 533.15 394.77 536.92 401.1 541.13 407.47 545.72 413.86 550.84 420.25 556.22 426.67 561.74 433.11 567.53 439.54 573.1 445.84 578.34 451.97 583.5 458.09 588.11 464.05 592.07 469.81 598.86 481.26 602.24 491.82 602.08 501.25 599.59 510.39 593.7 518.2 584.95 524.44 574.51 530.21 562.07 534.29 548.37 536.56 534.05 538.44 519.21 538.66 504.36 537.38 489.58 536.23 475.08 534.12 461.08 531.44 447.32 529.84 434.01 528.46 421.26 527.65 414.93 527.99 408.72 528.58 402.62 529.44 396.54 530.84 390.57 532.54 384.72 534.51 378.87 537 373.27 539.65 367.91 542.42 362.55 545.57 357.43 548.72 352.56 551.8 342.79 558.56 333.98 564.33 326.18 568.66 318.27 572.65 311.31 574.56 305.26 574.3 298.94 573.07 293.35 569.58 288.39 564.01 282.85 557.52 277.66 549.25 272.71 539.55 266.86 529.28 261.04 517.96 255.26 505.93 248.54 493.69 241.92 481 235.66 468.16 232.33 461.73 229.17 455.28 226.22 448.84 223.26 442.39 220.59 435.97 218.25 429.57 216.03 423.17 214.28 416.96 213.01 410.92 211.95 404.88 211.41 399.02 211.41 393.32 212.22 381.87 215.22 371.03 220.23 360.76 226.29 350.25 234.12 340.16 243.38 330.44 253.29 320.32 264.27 310.41 275.98 300.72 287.89 290.53 300.28 280.48 312.92 270.69 325.49 260.49 338.25 250.65 351.06 241.41 363.77 232.13 376.62 223.77 389.5 216.66 395.94 213.3 402.4 210.33 408.87 207.8 415.34 205.48 421.83 203.65 428.33 202.35"
       stroke-dasharray="4 4"
       transform="rotate(40.400000000000006, 400, 400)"
       opacity="0.62"
       id="path12" />
    <path
       d="M424.67 212.73C436.74 210.99 448.02 211.4 458.35 213.8 468.57 217.18 477.68 222.4 485.48 229.17 492.97 236.64 498.97 245.39 503.34 255.12 507.34 265.18 509.73 275.99 510.59 287.27 511.45 298.61 511.23 310.3 510.33 322.17 510.34 333.97 510.52 345.93 511.35 357.95 514.18 369.9 518.37 381.95 524.03 394 531.97 406.04 541.15 418.13 551 430.14 561.79 442.14 571.36 453.46 579.01 463.95 585.55 474.36 589.15 483.82 589.67 492.15 588.25 500.24 583.77 507.03 576.66 512.37 568 517.36 557.36 520.81 545.36 522.7 532.66 524.34 519.24 524.58 505.59 523.57 491.87 522.79 478.22 521.24 464.93 519.25 451.77 518.28 439 517.49 426.75 517.18 414.6 518.62 402.89 520.93 391.73 524.13 380.56 529.13 370.39 534.44 361.21 539.69 351.97 545.75 343.66 550.95 336.29 554.93 328.77 558.71 322.1 560.72 316.22 560.83 310.03 560.21 304.44 557.58 299.39 553.06 293.74 547.79 288.37 540.83 283.21 532.48 277.21 523.63 271.26 513.68 265.37 502.95 258.67 492 252.12 480.49 245.95 468.69 239.41 456.84 233.62 444.8 228.99 432.74 224.75 420.69 222.37 409.16 221.88 398.21 222.33 387.18 224.81 376.63 229.15 366.53 234.47 356.24 241.47 346.26 249.85 336.6 258.9 326.6 269.03 316.78 279.92 307.17 291.09 297.16 302.79 287.32 314.78 277.76 326.81 267.92 339.04 258.46 351.31 249.62 363.54 240.83 375.85 232.92 388.1 226.23 400.35 220.06 412.59 215.46 424.66 212.73"
       stroke-dasharray="1 7"
       transform="rotate(44.44, 400, 400)"
       opacity="0.58"
       id="path13" />
    <path
       d="M419.46 223.11C430.6 221.41 440.85 221.67 450.12 223.76 459.28 226.73 467.32 231.39 474.09 237.5 480.65 244.27 485.83 252.26 489.58 261.2 493.13 270.49 495.33 280.53 496.31 291.07 497.45 301.72 497.8 312.75 497.69 323.97 498.52 335.18 499.58 346.56 501.25 357.96 504.68 369.33 509.23 380.76 514.98 392.12 522.61 403.48 531.21 414.79 540.27 425.92 550.13 437.04 558.89 447.41 565.97 456.91 572.21 466.34 575.92 474.8 576.98 482.14 576.44 489.3 573.19 495.24 567.56 499.84 560.55 504.2 551.64 507.21 541.32 508.85 530.29 510.39 518.39 510.74 506.08 510.05 493.59 509.68 480.99 508.69 468.6 507.33 456.25 506.93 444.18 506.68 432.56 506.8 421 508.43 409.86 510.75 399.25 513.75 388.63 518.29 378.98 523.03 370.27 527.67 361.49 533.05 353.57 537.69 346.51 541.27 339.28 544.8 332.79 546.8 326.99 547.17 320.85 547 315.21 545.06 310.01 541.44 304.25 537.2 298.71 531.41 293.35 524.3 287.25 516.74 281.2 508.09 275.26 498.6 268.63 488.9 262.19 478.55 256.16 467.79 249.82 456.98 244.23 445.85 239.72 434.57 235.58 423.28 233.13 412.35 232.42 401.85 232.54 391.3 234.52 381.09 238.22 371.23 242.8 361.22 248.96 351.43 256.44 341.91 264.58 332.12 273.78 322.48 283.76 313.05 294.08 303.32 304.96 293.77 316.17 284.54 327.49 275.11 339.03 266.1 350.62 257.73 362.22 249.45 373.86 242.03 385.37 235.77 396.91 230.01 408.33 225.69 419.46 223.11"
       stroke-dasharray="10 11"
       transform="rotate(48.48, 400, 400)"
       opacity="0.54"
       id="path14" />
    <path
       d="M413.05 233.49C423.23 231.83 432.51 231.97 440.8 233.76 449.01 236.32 456.13 240.44 462.08 245.91 467.89 251.96 472.48 259.18 475.85 267.31 479.14 275.79 481.35 285.01 482.59 294.74 484.12 304.62 485.08 314.89 485.75 325.37 487.33 335.88 489.17 346.56 491.56 357.26 495.45 367.96 500.25 378.68 505.97 389.28 513.25 399.89 521.25 410.39 529.54 420.63 538.5 430.86 546.47 440.31 552.97 448.88 558.84 457.39 562.57 464.94 564.02 471.43 564.19 477.79 562 483.02 557.67 487.04 552.16 490.92 544.85 493.61 536.17 495.14 526.78 496.66 516.44 497.2 505.56 496.88 494.41 496.92 483.02 496.45 471.66 495.69 460.29 495.79 449.07 496.01 438.19 496.5 427.35 498.28 416.85 500.58 406.81 503.37 396.78 507.48 387.62 511.68 379.33 515.73 370.96 520.47 363.38 524.55 356.54 527.72 349.53 530.93 343.15 532.85 337.35 533.37 331.23 533.51 325.51 532.11 320.16 529.22 314.29 525.86 308.61 521.09 303.09 515.06 296.93 508.68 290.85 501.22 284.91 492.89 278.4 484.38 272.12 475.16 266.26 465.43 260.18 455.65 254.81 445.44 250.46 434.96 246.43 424.47 243.95 414.19 243.05 404.21 242.87 394.18 244.38 384.38 247.46 374.83 251.32 365.17 256.65 355.67 263.22 346.38 270.41 336.9 278.63 327.54 287.64 318.39 297.01 309.03 306.96 299.87 317.27 291.04 327.75 282.11 338.47 273.6 349.24 265.74 360.07 258 370.91 251.1 381.6 245.29 392.32 239.94 402.86 235.93 413.05 233.49"
       stroke-dasharray="10 6"
       transform="rotate(52.52, 400, 400)"
       opacity="0.51"
       id="path15" />
    <path
       d="M405.82 243.87C415.06 242.27 423.43 242.28 430.85 243.79 438.21 245.97 444.57 249.57 449.89 254.39 455.12 259.75 459.31 266.18 462.49 273.48 465.69 281.13 468.03 289.48 469.64 298.34 471.6 307.38 473.16 316.82 474.56 326.48 476.8 336.21 479.3 346.1 482.25 356.01 486.46 365.94 491.39 375.88 497.01 385.67 503.89 395.48 511.27 405.13 518.8 414.48 526.9 423.83 534.09 432.4 540.01 440.1 547.31 451.13 550.9 468.26 547.03 474.17 542.84 477.69 537 480.18 529.84 481.7 522.03 483.28 513.24 484.04 503.8 484.11 494.08 484.54 483.97 484.56 473.76 484.34 463.48 484.88 453.23 485.48 443.19 486.28 433.16 488.16 423.38 490.4 413.96 492.99 404.53 496.68 395.88 500.37 387.97 503.88 380 508 372.7 511.54 366.05 514.3 359.22 517.16 352.92 518.93 347.11 519.5 340.99 519.83 335.2 518.83 329.72 516.53 323.78 513.88 318.01 509.96 312.39 504.89 306.24 499.54 300.19 493.15 294.31 485.9 287.98 478.49 281.91 470.35 276.28 461.62 270.49 452.84 265.37 443.57 261.19 433.9 257.3 424.24 254.82 414.65 253.77 405.24 253.32 395.8 254.4 386.48 256.89 377.34 260.06 368.11 264.58 358.99 270.25 350.04 276.48 340.96 283.71 331.99 291.69 323.23 300.04 314.33 308.99 305.64 318.31 297.3 327.82 288.92 337.6 280.98 347.45 273.66 357.39 266.5 367.34 260.14 377.13 254.78 386.96 249.86 396.58 246.15 405.82 243.87"
       stroke-dasharray="10 2"
       transform="rotate(56.56, 400, 400)"
       opacity="0.47"
       id="path16" />
    <path
       d="M398.24 254.25C406.55 252.72 414.06 252.62 420.72 253.86 427.33 255.69 433.07 258.78 437.9 262.97 442.71 267.65 446.66 273.31 449.78 279.77 453 286.56 455.56 294.03 457.58 301.99 459.97 310.14 462.09 318.69 464.13 327.46 466.91 336.32 469.93 345.35 473.3 354.41 477.71 363.5 482.66 372.59 488.09 381.52 494.51 390.48 501.27 399.27 508.07 407.74 515.33 416.21 521.77 423.92 527.11 430.83 533.88 440.72 538.28 456.06 535.7 461.42 532.64 464.66 528.11 467.05 522.33 468.62 515.99 470.3 508.68 471.32 500.66 471.76 492.35 472.56 483.57 473.02 474.56 473.26 465.46 474.17 456.25 475.1 447.12 476.13 438 478.06 428.99 480.23 420.23 482.61 411.47 485.9 403.33 489.11 395.82 492.11 388.25 495.66 381.23 498.67 374.75 501.02 368.11 503.51 361.89 505.07 356.07 505.62 349.99 506.04 344.17 505.32 338.6 503.47 332.66 501.38 326.86 498.17 321.22 493.92 315.15 489.45 309.21 484.01 303.47 477.74 297.38 471.34 291.57 464.2 286.21 456.44 280.73 448.63 275.9 440.27 271.92 431.45 268.2 422.62 265.75 413.77 264.57 404.99 263.91 396.2 264.59 387.44 266.53 378.79 269.06 370.09 272.8 361.45 277.59 352.95 282.89 344.36 289.11 335.88 296.05 327.6 303.35 319.25 311.23 311.12 319.5 303.34 327.98 295.58 336.74 288.24 345.59 281.51 354.54 274.96 363.52 269.14 372.36 264.26 381.23 259.77 389.92 256.37 398.24 254.25"
       stroke-dasharray="5 6"
       transform="rotate(60.599999999999994, 400, 400)"
       opacity="0.43"
       id="path17" />
    <path
       d="M390.76 264.63C398.18 263.18 404.9 262.99 410.89 263.98 416.85 265.47 422.07 268.08 426.55 271.67 431.04 275.69 434.85 280.59 438.01 286.23 441.31 292.16 444.12 298.73 446.53 305.77 449.3 313 451.9 320.61 454.46 328.45 457.66 336.39 461.04 344.51 464.69 352.65 469.17 360.85 474.02 369.04 479.19 377.09 485.13 385.17 491.26 393.08 497.34 400.68 503.79 408.29 509.5 415.2 514.26 421.37 522.88 437.13 519.93 453.2 513.67 456.03 508.66 457.83 502.71 459.09 496.04 459.88 489.1 461 481.63 461.84 473.83 462.47 465.92 463.67 457.81 464.85 449.65 466.05 441.48 467.99 433.31 470.06 425.25 472.23 417.19 475.13 409.61 477.91 402.51 480.44 395.38 483.44 388.66 485.96 382.37 487.91 375.95 490.01 369.86 491.34 364.09 491.81 358.09 492.22 352.31 491.68 346.74 490.17 340.87 488.51 335.13 485.86 329.56 482.29 323.66 478.57 317.9 473.96 312.37 468.57 306.59 463.07 301.1 456.86 296.04 450.01 290.93 443.12 286.4 435.66 282.66 427.69 279.13 419.72 276.74 411.64 275.47 403.55 274.62 395.45 274.96 387.33 276.41 379.27 278.34 371.18 281.35 363.12 285.31 355.17 289.7 347.18 294.94 339.28 300.86 331.58 307.09 323.86 313.89 316.36 321.09 309.21 328.48 302.11 336.16 295.43 343.97 289.32 351.88 283.38 359.84 278.13 367.7 273.73 375.59 269.67 383.33 266.58 390.76 264.63"
       stroke-dasharray="3 11"
       transform="rotate(64.64, 400, 400)"
       opacity="0.39"
       id="path18" />
    <path
       d="M383.85 275.01C393.42 273.52 409.58 276.41 416.18 280.51 420.42 283.89 424.14 288.06 427.38 292.89 430.76 297.98 433.79 303.66 436.55 309.77 439.62 316.06 442.59 322.71 445.54 329.6 449.01 336.59 452.61 343.75 456.39 350.95 460.81 358.22 465.47 365.48 470.31 372.63 475.73 379.81 481.23 386.83 486.61 393.59 492.28 400.35 497.29 406.49 501.47 411.99 509.54 426.14 508.65 441.07 503.92 444 497.69 446.66 481.13 450.44 471.4 451.96 464.68 453.37 457.66 454.72 450.49 456.04 443.3 457.95 436 459.9 428.69 461.85 421.39 464.39 414.4 466.75 407.78 468.85 401.12 471.34 394.76 473.41 388.72 474.97 379.64 477.23 362.39 478.24 354.09 476.74 348.39 475.38 342.81 473.19 337.41 470.18 331.76 467.07 326.28 463.18 321.03 458.56 315.61 453.87 310.49 448.49 305.79 442.51 301.06 436.49 296.87 429.9 293.39 422.79 290.09 415.67 287.79 408.39 286.47 401.05 285.48 393.71 285.52 386.3 286.53 378.91 287.93 371.51 290.28 364.11 293.46 356.81 297 349.49 301.3 342.27 306.22 335.24 311.42 328.22 317.16 321.41 323.28 314.94 329.57 308.55 336.17 302.55 342.92 297.08 349.77 291.78 356.7 287.1 363.57 283.18 370.48 279.56 377.28 276.79 383.85 275.01"
       stroke-dasharray="7 4"
       transform="rotate(68.68, 400, 400)"
       opacity="0.35"
       id="path19" />
    <path
       d="M377.95 285.39C389.45 283.22 399.2 284.8 407.1 289.5 415.19 295.34 421.95 303.84 427.68 314.09 434.51 324.94 441.34 337.07 448.36 349.53 457.32 362.19 466.8 374.9 475.87 386.76 485.86 398.62 493.04 408.4 496.77 415.93 499.47 423.49 498.11 429.01 493.17 432.62 487.12 436.78 478.13 439.72 467.21 441.72 455.94 445.19 443.4 448.49 430.36 451.47 417.31 456.29 404.99 460.01 393.66 462.23 382.05 465.06 370.97 465.5 360.62 463.32 349.63 460.96 339.06 455.76 329.46 447.93 319.39 439.91 310.61 429.46 304.13 416.94 298.24 404.42 295.92 391.14 296.92 377.85 299.11 364.57 304.48 351.25 312.26 338.64 320.91 326.16 331.4 314.58 342.74 304.83 354.41 295.7 366.45 288.9 377.95 285.39"
       stroke-dasharray="5 3"
       transform="rotate(72.72, 400, 400)"
       opacity="0.32"
       id="path20" />
    <path
       d="M373.42 295.77C383.37 293.74 392.11 294.89 399.53 298.66 407.15 303.32 413.9 310.29 419.92 318.8 426.81 327.82 433.71 338.02 440.59 348.59 448.86 359.34 457.3 370.22 465.14 380.48 473.66 390.74 479.79 399.33 483.1 406.11 485.47 415.58 473.67 427.76 461.29 431.74 452.12 435.24 441.54 438.42 430.13 441.09 418.72 445.14 407.6 448.09 397.11 449.69 386.44 451.84 376.09 451.99 366.35 450 356.19 447.97 346.44 443.57 337.64 436.92 328.58 430.15 320.71 421.22 314.86 410.4 309.49 399.57 307.13 387.96 307.58 376.27 308.9 364.63 312.93 352.93 319.06 341.89 325.85 331.02 334.33 320.98 343.7 312.57 353.33 304.71 363.47 298.84 373.42 295.77"
       stroke-dasharray="6 8"
       transform="rotate(76.76, 400, 400)"
       opacity="0.28"
       id="path21" />
    <path
       d="M370.54 306.15C379.01 304.3 386.75 305.06 393.63 307.99 400.68 311.59 407.22 317.12 413.25 324 419.91 331.26 426.55 339.58 433.02 348.33 440.43 357.21 447.78 366.3 454.41 375.01 461.52 383.71 466.63 391.16 469.46 397.21 471.86 405.8 463.48 417.8 453.76 422.02 446.48 425.41 437.76 428.37 428.03 430.71 418.3 434.05 408.52 436.31 399.09 437.38 389.56 438.89 380.18 438.77 371.3 436.92 362.18 435.11 353.45 431.36 345.62 425.76 337.66 420.09 330.75 412.59 325.6 403.42 320.79 394.25 318.5 384.36 318.52 374.37 319.15 364.44 322.02 354.46 326.68 345.08 331.82 335.87 338.45 327.4 346 320.34 353.72 313.73 362.08 308.78 370.54 306.15"
       stroke-dasharray="4 3"
       transform="rotate(80.80000000000001, 400, 400)"
       opacity="0.24"
       id="path22" />
    <path
       d="M369.5 316.53C376.53 314.9 383.24 315.34 389.44 317.52 395.77 320.18 401.85 324.4 407.57 329.74 413.72 335.37 419.82 341.93 425.63 348.91 432.04 356 438.23 363.37 443.67 370.57 451.5 380.91 458.08 396.99 456.32 402.85 454.22 406.74 450.29 409.99 444.81 412.55 439.19 415.68 432.23 418.34 424.19 420.33 416.15 423 407.85 424.66 399.69 425.28 391.48 426.25 383.31 425.89 375.54 424.17 367.66 422.52 360.12 419.34 353.39 414.69 346.62 410.01 340.75 403.84 336.33 396.3 332.17 388.76 330.02 380.61 329.74 372.37 329.85 364.19 331.77 355.99 335.17 348.3 338.88 340.77 343.88 333.87 349.77 328.14 355.77 322.76 362.46 318.72 369.5 316.53"
       stroke-dasharray="6 4"
       transform="rotate(84.84, 400, 400)"
       opacity="0.20"
       id="path23" />
    <path
       d="M370.35 326.91C381.63 324.53 392.88 328.37 402.81 336.1 413.77 344.57 424.66 355.9 432.94 367.34 442.05 378.78 445.45 388.09 443.07 394.47 440.09 401.63 431.55 407.17 418.84 409.95 406.13 414.44 391.99 415.08 379.16 411.86 366.19 408.93 354.42 401.26 347.06 389.34 340.38 377.41 339.99 363.76 344.54 351.66 349.78 340.06 359.06 330.75 370.35 326.91"
       stroke-dasharray="5 2"
       transform="rotate(88.88, 400, 400)"
       opacity="0.16"
       id="path24" />
    <path
       d="M373.04 337.29C381.56 335.32 390.61 337.78 398.82 343.12 407.56 348.87 416.03 356.91 422.2 365.47 428.83 374.02 431.28 381.44 429.62 386.87 427.72 392.76 421.71 397.35 412.32 399.57 402.94 402.73 392.16 402.81 382.28 400.06 372.41 397.53 363.45 391.64 357.8 382.81 352.54 373.98 351.82 364 354.77 355.25 358.04 346.83 364.52 340.1 373.04 337.29"
       stroke-dasharray="9 4"
       transform="rotate(92.92, 400, 400)"
       opacity="0.13"
       id="path25" />
    <path
       d="M377.41 347.67C388.9 345.19 403.59 353.62 411.47 365.02 420.14 376.41 417.34 386.51 405.04 389.19 392.73 393.52 376.33 388.65 368.53 377 361.45 365.34 365.91 351.68 377.41 347.67"
       stroke-dasharray="6 3"
       transform="rotate(96.96, 400, 400)"
       opacity="0.09"
       id="path26" />
  </g>
</svg>
