<?xml version="1.0" encoding="UTF-8" standalone="no"?>
<svg
   version="1.1"
   viewBox="0 0 800 800"
   id="svg26"
   sodipodi:docname="ccchaos.svg"
   inkscape:version="1.4.2 (f4327f4, 2025-05-13)"
   xmlns:inkscape="http://www.inkscape.org/namespaces/inkscape"
   xmlns:sodipodi="http://sodipodi.sourceforge.net/DTD/sodipodi-0.dtd"
   xmlns:xlink="http://www.w3.org/1999/xlink"
   xmlns="http://www.w3.org/2000/svg"
   xmlns:svg="http://www.w3.org/2000/svg">
  <sodipodi:namedview
     id="namedview26"
     pagecolor="#ffffff"
     bordercolor="#000000"
     borderopacity="0.25"
     inkscape:showpageshadow="2"
     inkscape:pageopacity="0.0"
     inkscape:pagecheckerboard="0"
     inkscape:deskcolor="#d1d1d1"
     showgrid="false"
     inkscape:zoom="0.96625"
     inkscape:cx="399.48254"
     inkscape:cy="433.11772"
     inkscape:window-width="1920"
     inkscape:window-height="991"
     inkscape:window-x="-9"
     inkscape:window-y="-9"
     inkscape:window-maximized="1"
     inkscape:current-layer="svg26" />
  <defs
     id="defs2">
    <linearGradient
       x1="50%"
       y1="0%"
       x2="50%"
       y2="100%"
       id="ccchaos-grad">
      <stop
         stop-color="hsl(206, 75%, 49%)"
         stop-opacity="1"
         offset="0%"
         id="stop1" />
      <stop
         stop-color="hsl(331, 90%, 56%)"
         stop-opacity="1"
         offset="100%"
         id="stop2" />
    </linearGradient>
    <linearGradient
       inkscape:collect="always"
       xlink:href="#ccchaos-grad"
       id="linearGradient26"
       x1="412.82865"
       y1="97.497575"
       x2="412.82865"
       y2="711.99719"
       gradientTransform="scale(1.00845,0.99162076)"
       gradientUnits="userSpaceOnUse" />
    <linearGradient
       inkscape:collect="always"
       xlink:href="#ccchaos-grad"
       id="linearGradient27"
       x1="411.64908"
       y1="108.00456"
       x2="411.64908"
       y2="699.74236"
       gradientTransform="scale(1.0093297,0.99075657)"
       gradientUnits="userSpaceOnUse" />
    <linearGradient
       inkscape:collect="always"
       xlink:href="#ccchaos-grad"
       id="linearGradient28"
       x1="410.44583"
       y1="118.54032"
       x2="410.44583"
       y2="687.48242"
       gradientTransform="scale(1.0103003,0.98980474)"
       gradientUnits="userSpaceOnUse" />
    <linearGradient
       inkscape:collect="always"
       xlink:href="#ccchaos-grad"
       id="linearGradient29"
       x1="409.1645"
       y1="129.11563"
       x2="409.1645"
       y2="675.27856"
       gradientTransform="scale(1.0114148,0.98871405)"
       gradientUnits="userSpaceOnUse" />
    <linearGradient
       inkscape:collect="always"
       xlink:href="#ccchaos-grad"
       id="linearGradient30"
       x1="407.86581"
       y1="139.70843"
       x2="407.86581"
       y2="662.9727"
       gradientTransform="scale(1.0124689,0.98768466)"
       gradientUnits="userSpaceOnUse" />
    <linearGradient
       inkscape:collect="always"
       xlink:href="#ccchaos-grad"
       id="linearGradient31"
       x1="405.78317"
       y1="150.59483"
       x2="405.78317"
       y2="650.14572"
       gradientTransform="scale(1.0153818,0.98485119)"
       gradientUnits="userSpaceOnUse" />
    <linearGradient
       inkscape:collect="always"
       xlink:href="#ccchaos-grad"
       id="linearGradient32"
       x1="404.28429"
       y1="161.25781"
       x2="404.28429"
       y2="637.70909"
       gradientTransform="scale(1.0164766,0.98379052)"
       gradientUnits="userSpaceOnUse" />
    <linearGradient
       inkscape:collect="always"
       xlink:href="#ccchaos-grad"
       id="linearGradient33"
       x1="403.21535"
       y1="171.78322"
       x2="403.21535"
       y2="625.66335"
       gradientTransform="scale(1.0166101,0.98366128)"
       gradientUnits="userSpaceOnUse" />
    <linearGradient
       inkscape:collect="always"
       xlink:href="#ccchaos-grad"
       id="linearGradient34"
       x1="401.20974"
       y1="182.71574"
       x2="401.20974"
       y2="613.03436"
       gradientTransform="scale(1.0189946,0.98135943)"
       gradientUnits="userSpaceOnUse" />
    <linearGradient
       inkscape:collect="always"
       xlink:href="#ccchaos-grad"
       id="linearGradient35"
       x1="398.43593"
       y1="193.8759"
       x2="398.43593"
       y2="599.49333"
       gradientTransform="scale(1.0223061,0.97818059)"
       gradientUnits="userSpaceOnUse" />
    <linearGradient
       inkscape:collect="always"
       xlink:href="#ccchaos-grad"
       id="linearGradient36"
       x1="397.6863"
       y1="204.54035"
       x2="397.6863"
       y2="588.44413"
       gradientTransform="scale(1.022806,0.97770254)"
       gradientUnits="userSpaceOnUse" />
    <linearGradient
       inkscape:collect="always"
       xlink:href="#ccchaos-grad"
       id="linearGradient37"
       x1="395.45294"
       y1="216.10894"
       x2="395.45294"
       y2="576.28324"
       gradientTransform="scale(1.0257935,0.9748551)"
       gradientUnits="userSpaceOnUse" />
    <linearGradient
       inkscape:collect="always"
       xlink:href="#ccchaos-grad"
       id="linearGradient38"
       x1="392.84704"
       y1="227.60695"
       x2="392.84704"
       y2="563.69771"
       gradientTransform="scale(1.029439,0.97140285)"
       gradientUnits="userSpaceOnUse" />
    <linearGradient
       inkscape:collect="always"
       xlink:href="#ccchaos-grad"
       id="linearGradient39"
       x1="390.84743"
       y1="238.86531"
       x2="390.84743"
       y2="551.71669"
       gradientTransform="scale(1.0324453,0.96857432)"
       gradientUnits="userSpaceOnUse" />
    <linearGradient
       inkscape:collect="always"
       xlink:href="#ccchaos-grad"
       id="linearGradient40"
       x1="388.7632"
       y1="249.35667"
       x2="388.7632"
       y2="537.13193"
       gradientTransform="scale(1.0318319,0.96915008)"
       gradientUnits="userSpaceOnUse" />
    <linearGradient
       inkscape:collect="always"
       xlink:href="#ccchaos-grad"
       id="linearGradient41"
       x1="385.92992"
       y1="261.44374"
       x2="385.92992"
       y2="525.66123"
       gradientTransform="scale(1.0374424,0.9639089)"
       gradientUnits="userSpaceOnUse" />
    <linearGradient
       inkscape:collect="always"
       xlink:href="#ccchaos-grad"
       id="linearGradient42"
       x1="384.24375"
       y1="271.22314"
       x2="384.24375"
       y2="509.54122"
       gradientTransform="scale(1.0336734,0.96742359)"
       gradientUnits="userSpaceOnUse" />
    <linearGradient
       inkscape:collect="always"
       xlink:href="#ccchaos-grad"
       id="linearGradient43"
       x1="379.48669"
       y1="285.97478"
       x2="379.48669"
       y2="500.06621"
       gradientTransform="scale(1.0451791,0.95677386)"
       gradientUnits="userSpaceOnUse" />
    <linearGradient
       inkscape:collect="always"
       xlink:href="#ccchaos-grad"
       id="linearGradient44"
       x1="376.16412"
       y1="299.44441"
       x2="376.16412"
       y2="492.0061"
       gradientTransform="scale(1.0564936,0.94652723)"
       gradientUnits="userSpaceOnUse" />
    <linearGradient
       inkscape:collect="always"
       xlink:href="#ccchaos-grad"
       id="linearGradient45"
       x1="373.37238"
       y1="311.25034"
       x2="373.37238"
       y2="479.07702"
       gradientTransform="scale(1.0589623,0.94432071)"
       gradientUnits="userSpaceOnUse" />
    <linearGradient
       inkscape:collect="always"
       xlink:href="#ccchaos-grad"
       id="linearGradient46"
       x1="370.23276"
       y1="323.82616"
       x2="370.23276"
       y2="467.84584"
       gradientTransform="scale(1.0647065,0.93922593)"
       gradientUnits="userSpaceOnUse" />
    <linearGradient
       inkscape:collect="always"
       xlink:href="#ccchaos-grad"
       id="linearGradient47"
       x1="366.91782"
       y1="337.08898"
       x2="366.91782"
       y2="457.3498"
       gradientTransform="scale(1.0715556,0.9332227)"
       gradientUnits="userSpaceOnUse" />
    <linearGradient
       inkscape:collect="always"
       xlink:href="#ccchaos-grad"
       id="linearGradient48"
       x1="364.12882"
       y1="350.68131"
       x2="364.12882"
       y2="447.36766"
       gradientTransform="scale(1.0783186,0.9273697)"
       gradientUnits="userSpaceOnUse" />
    <linearGradient
       inkscape:collect="always"
       xlink:href="#ccchaos-grad"
       id="linearGradient49"
       x1="361.57289"
       y1="363.47062"
       x2="361.57289"
       y2="436.48848"
       gradientTransform="scale(1.0829999,0.92336115)"
       gradientUnits="userSpaceOnUse" />
    <linearGradient
       inkscape:collect="always"
       xlink:href="#ccchaos-grad"
       id="linearGradient50"
       x1="360.98071"
       y1="374.85443"
       x2="360.98071"
       y2="424.13353"
       gradientTransform="scale(1.08266,0.92365103)"
       gradientUnits="userSpaceOnUse" />
    <linearGradient
       inkscape:collect="always"
       xlink:href="#ccchaos-grad"
       id="linearGradient51"
       x1="412.82865"
       y1="97.497575"
       x2="412.82865"
       y2="711.99719"
       gradientTransform="scale(1.00845,0.99162076)"
       gradientUnits="userSpaceOnUse" />
  </defs>
  <g
     stroke-width="2"
     stroke="url(#ccchaos-grad)"
     fill="none"
     stroke-linecap="round"
     id="g26"
     style="stroke:url(#linearGradient51)"
     transform="translate(-2.0698577,-37.257439)">
    <path
       d="m 384.04,98.55 c 9.49,-1.09 19.17,-1.15 29.05,-0.22 9.91,1.48 20.05,3.92 30.41,7.25 10.45,3.77 21.16,8.34 32.14,13.59 11.09,5.52 22.48,11.59 34.13,18.11 11.76,6.58 23.77,13.47 35.94,20.59 12.19,6.99 24.45,14.11 36.63,21.3 11.98,6.93 23.67,13.88 34.87,20.83 10.66,6.61 20.53,13.23 29.36,19.84 7.9,6.28 14.47,12.6 19.51,18.98 3.83,6.08 5.98,12.28 6.38,18.62 -0.75,6.11 -3.11,12.43 -6.92,18.96 -4.41,6.38 -9.76,13.03 -15.7,19.98 -5.52,6.85 -10.85,14.02 -15.56,21.55 -3.16,7.45 -4.97,15.28 -5.12,23.48 2.11,8.17 6.15,16.73 12.07,25.69 8,8.94 17.43,18.31 27.85,28.09 11.27,9.79 22.18,19.8 32.15,30 9.14,10.22 16.37,20.66 21.33,31.29 3.04,10.67 3.43,21.56 1.2,32.61 -4.32,11.11 -11.01,22.38 -19.75,33.77 -10.21,11.41 -21.84,22.9 -34.47,34.39 -13.12,11.42 -26.56,22.75 -39.97,33.88 -13.06,10.9 -25.63,21.46 -37.53,31.51 -11.06,9.62 -21.29,18.55 -30.7,26.64 -8.47,7.43 -16.21,13.82 -23.32,19.03 -9.3,5.92 -25.69,9.82 -33.51,7.8 -5,-2.41 -10.29,-5.9 -15.93,-10.32 -5.58,-4.55 -11.62,-9.61 -18.17,-14.95 -6.57,-4.77 -13.68,-9.32 -21.34,-13.37 -7.71,-2.81 -15.96,-4.7 -24.73,-5.5 -8.81,0.86 -18.12,2.98 -27.91,6.34 -9.78,4.94 -19.78,10.75 -29.93,17.16 -10.11,7.32 -20.34,14.66 -30.62,21.73 -10.2,7.12 -20.42,13.41 -30.58,18.62 -10.04,4.54 -19.97,7.64 -29.73,9.18 -9.58,0.47 -18.92,-0.73 -27.94,-3.54 -8.79,-3.96 -17.2,-9.42 -25.16,-16.24 -7.67,-7.76 -14.85,-16.62 -21.48,-26.41 -6.33,-10.38 -12.09,-21.4 -17.26,-32.88 -4.93,-11.74 -9.31,-23.71 -13.14,-35.76 -3.71,-12.06 -6.97,-24.06 -9.81,-35.92 -2.9,-11.72 -5.51,-23.25 -7.86,-34.53 -2.62,-11.09 -5.1,-21.96 -7.48,-32.59 -2.78,-10.45 -5.52,-20.72 -8.24,-30.79 -3.14,-9.96 -6.24,-19.79 -9.25,-29.49 -3.34,-9.63 -6.5,-19.19 -9.39,-28.67 -3.01,-9.45 -5.59,-18.86 -7.65,-28.2 -1.9,-9.34 -3.06,-18.41 -3.44,-27.2 -0.02,-8.79 0.83,-17.28 2.52,-25.46 2.14,-8.18 5.13,-16.02 8.91,-23.51 4.17,-7.48 9.04,-14.59 14.53,-21.31 5.71,-6.7 11.91,-13.02 18.5,-18.93 6.59,-5.93 13.44,-11.47 20.47,-16.63 6.83,-5.22 13.75,-10.1 20.7,-14.67 6.63,-4.7 13.26,-9.16 19.87,-13.39 6.26,-4.47 12.53,-8.8 18.82,-13.01 5.98,-4.56 12.04,-9.07 18.22,-13.57 5.93,-4.9 12.05,-9.83 18.39,-14.78 6.17,-5.37 12.62,-10.75 19.37,-16.11 6.65,-5.7 13.64,-11.3 20.98,-16.74 7.27,-5.61 14.92,-10.93 22.93,-15.86 7.97,-4.85 16.32,-9.16 25.05,-12.81 8.71,-3.33 17.8,-5.85 27.3,-7.45"
       stroke-dasharray="5, 11"
       opacity="1"
       id="path2"
       style="stroke:url(#linearGradient26)" />
    <path
       d="m 390.96,108.93 c 9.29,-1.1 18.79,-1.21 28.51,-0.37 9.75,1.37 19.74,3.67 29.96,6.82 10.29,3.6 20.84,7.97 31.62,13.01 10.86,5.33 21.96,11.2 33.25,17.54 11.34,6.42 22.83,13.17 34.37,20.18 11.48,6.91 22.9,13.98 34.1,21.15 10.93,6.95 21.43,13.94 31.33,20.95 9.32,6.72 17.77,13.44 25.15,20.17 6.49,6.42 11.67,12.87 15.4,19.36 2.67,6.22 3.81,12.52 3.38,18.94 -1.34,6.2 -4.06,12.56 -7.98,19.11 -4.29,6.38 -9.28,13.01 -14.67,19.89 -4.85,6.77 -9.41,13.85 -13.28,21.23 -2.38,7.31 -3.48,14.97 -3.05,22.99 2.51,7.96 6.73,16.31 12.63,25.05 7.76,8.71 16.78,17.83 26.66,27.36 10.66,9.53 20.98,19.27 30.45,29.19 8.77,9.95 15.83,20.09 20.86,30.41 3.34,10.35 4.27,20.87 2.8,31.53 -3.38,10.68 -8.99,21.48 -16.58,32.34 -9.02,10.85 -19.49,21.7 -31.04,32.48 -12.18,10.68 -24.86,21.18 -37.69,31.41 -12.7,9.97 -25.12,19.53 -37.07,28.53 -11.32,8.56 -21.98,16.41 -31.94,23.39 -9.16,6.37 -17.65,11.72 -25.53,15.96 -7.18,3.49 -13.9,5.78 -20.3,6.82 -5.9,0.31 -11.66,-0.56 -17.41,-2.59 -5.46,-2.52 -11.06,-5.96 -16.91,-10.18 -5.72,-4.25 -11.8,-8.91 -18.26,-13.76 -6.45,-4.26 -13.35,-8.27 -20.71,-11.8 -7.38,-2.37 -15.24,-3.89 -23.56,-4.42 -8.35,0.98 -17.16,3.09 -26.4,6.31 -9.24,4.66 -18.67,10.1 -28.22,16.08 -9.53,6.82 -19.14,13.69 -28.78,20.33 -9.57,6.74 -19.13,12.76 -28.6,17.85 -9.36,4.53 -18.58,7.79 -27.6,9.65 -8.85,0.94 -17.44,0.36 -25.7,-1.71 -8.04,-3.09 -15.69,-7.61 -22.89,-13.42 -6.95,-6.69 -13.42,-14.49 -19.35,-23.23 -5.69,-9.34 -10.85,-19.38 -15.46,-29.94 -4.42,-10.89 -8.34,-22.09 -11.78,-33.47 -3.38,-11.47 -6.35,-22.97 -8.97,-34.41 -2.73,-11.37 -5.21,-22.62 -7.48,-33.68 -2.56,-10.93 -5.02,-21.67 -7.41,-32.2 -2.79,-10.39 -5.57,-20.59 -8.33,-30.59 -3.19,-9.9 -6.33,-19.65 -9.4,-29.23 -3.39,-9.53 -6.61,-18.94 -9.56,-28.23 -3.07,-9.26 -5.73,-18.43 -7.87,-27.49 -1.99,-9.05 -3.26,-17.8 -3.77,-26.22 -0.15,-8.43 0.54,-16.54 2.07,-24.32 1.97,-7.78 4.77,-15.22 8.36,-22.31 3.97,-7.08 8.66,-13.81 13.97,-20.15 5.54,-6.36 11.6,-12.36 18.06,-17.97 6.51,-5.66 13.3,-10.97 20.29,-15.94 6.85,-5.07 13.8,-9.83 20.82,-14.33 6.73,-4.66 13.49,-9.1 20.23,-13.37 6.42,-4.52 12.84,-8.92 19.27,-13.24 6.13,-4.66 12.31,-9.3 18.58,-13.92 6.01,-5.02 12.17,-10.05 18.51,-15.1 6.15,-5.44 12.54,-10.87 19.19,-16.26 6.52,-5.69 13.35,-11.28 20.5,-16.68 7.07,-5.54 14.49,-10.77 22.27,-15.62 7.73,-4.76 15.84,-8.98 24.33,-12.55 8.47,-3.26 17.34,-5.74 26.62,-7.33"
       stroke-dasharray="10, 2"
       transform="rotate(4.04,400,400)"
       opacity="0.96"
       id="path3"
       style="stroke:url(#linearGradient27)" />
    <path
       d="m 398.45,119.31 c 9.08,-1.11 18.38,-1.27 27.9,-0.51 9.54,1.26 19.31,3.41 29.3,6.39 10.03,3.41 20.29,7.56 30.73,12.39 10.49,5.11 21.15,10.77 31.93,16.9 10.76,6.23 21.57,12.82 32.33,19.68 10.63,6.81 21.07,13.8 31.19,20.91 9.78,6.93 19.05,13.93 27.63,20.97 7.99,6.79 15.06,13.59 21.07,20.4 5.18,6.54 9.12,13.11 11.71,19.71 1.68,6.34 1.98,12.76 0.93,19.26 -1.76,6.29 -4.66,12.72 -8.54,19.31 -4.06,6.42 -8.62,13.05 -13.41,19.9 -4.15,6.73 -7.93,13.74 -11.01,21.02 -1.64,7.21 -2.09,14.73 -1.13,22.58 2.83,7.8 7.21,15.95 13.06,24.47 7.51,8.49 16.11,17.37 25.47,26.63 10.06,9.27 19.8,18.72 28.77,28.34 8.4,9.63 15.26,19.43 20.31,29.37 3.57,9.96 4.96,20.06 4.17,30.24 -2.51,10.19 -7.11,20.44 -13.6,30.69 -7.85,10.2 -17.17,20.35 -27.63,30.36 -11.17,9.87 -22.97,19.5 -35.1,28.79 -12.16,9.02 -24.24,17.57 -36.05,25.54 -11.36,7.53 -22.23,14.33 -32.53,20.28 -9.66,5.38 -18.73,9.79 -27.25,13.15 -7.88,2.7 -15.31,4.31 -22.38,4.78 -6.58,-0.12 -12.96,-1.3 -19.23,-3.49 -5.95,-2.54 -11.95,-5.87 -18.07,-9.85 -5.97,-3.92 -12.17,-8.16 -18.65,-12.51 -6.43,-3.76 -13.21,-7.26 -20.36,-10.3 -7.15,-1.95 -14.69,-3.13 -22.64,-3.42 -7.95,1.09 -16.3,3.18 -25.02,6.26 -8.73,4.39 -17.6,9.47 -26.56,15.03 -8.93,6.35 -17.92,12.75 -26.9,18.97 -8.92,6.36 -17.79,12.09 -26.55,17.01 -8.66,4.48 -17.15,7.83 -25.42,9.95 -8.1,1.33 -15.94,1.28 -23.43,-0.13 -7.29,-2.31 -14.2,-5.96 -20.67,-10.83 -6.25,-5.69 -12.03,-12.46 -17.32,-20.16 -5.09,-8.3 -9.69,-17.34 -13.8,-26.96 -3.97,-9.97 -7.5,-20.34 -10.6,-30.97 -3.09,-10.76 -5.85,-21.65 -8.29,-32.56 -2.6,-10.91 -4.99,-21.76 -7.23,-32.48 -2.54,-10.65 -5,-21.15 -7.43,-31.47 -2.82,-10.22 -5.65,-20.26 -8.47,-30.11 -3.22,-9.77 -6.42,-19.38 -9.55,-28.81 -3.43,-9.38 -6.69,-18.61 -9.7,-27.69 -3.11,-9.06 -5.83,-17.99 -8.05,-26.77 -2.07,-8.78 -3.43,-17.22 -4.06,-25.32 -0.28,-8.11 0.26,-15.88 1.61,-23.31 1.79,-7.43 4.39,-14.53 7.76,-21.26 3.77,-6.76 8.24,-13.17 13.33,-19.21 5.36,-6.08 11.23,-11.82 17.53,-17.21 6.38,-5.46 13.07,-10.61 19.99,-15.46 6.83,-4.96 13.79,-9.66 20.83,-14.14 6.82,-4.65 13.66,-9.13 20.52,-13.47 6.57,-4.59 13.14,-9.09 19.71,-13.53 6.29,-4.77 12.62,-9.53 19,-14.28 6.14,-5.11 12.39,-10.24 18.78,-15.38 6.2,-5.48 12.59,-10.94 19.21,-16.35 6.48,-5.67 13.23,-11.21 20.26,-16.56 6.95,-5.44 14.22,-10.59 21.82,-15.34 7.55,-4.65 15.47,-8.76 23.76,-12.25 8.27,-3.19 16.93,-5.61 26.01,-7.19"
       stroke-dasharray="10, 6"
       transform="rotate(8.08,400,400)"
       opacity="0.92"
       id="path4"
       style="stroke:url(#linearGradient28)" />
    <path
       d="m 406.03,129.69 c 8.86,-1.11 17.93,-1.32 27.19,-0.65 9.27,1.15 18.75,3.15 28.41,5.95 9.68,3.21 19.54,7.15 29.53,11.75 9.99,4.87 20.08,10.3 30.2,16.2 10.06,6.03 20.06,12.42 29.92,19.1 9.67,6.67 19.06,13.54 28.03,20.55 8.61,6.89 16.63,13.86 23.91,20.88 6.71,6.82 12.5,13.67 17.25,20.54 4.01,6.63 6.86,13.29 8.48,19.98 0.87,6.46 0.54,12.97 -0.95,19.56 -2.02,6.39 -4.96,12.89 -8.67,19.52 -3.72,6.47 -7.79,13.12 -11.93,19.96 -3.45,6.72 -6.47,13.68 -8.79,20.88 -0.96,7.12 -0.81,14.53 0.61,22.23 3.12,7.65 7.6,15.62 13.38,23.92 7.24,8.28 15.44,16.91 24.28,25.89 9.47,8.99 18.64,18.12 27.13,27.39 8,9.28 14.64,18.7 19.67,28.21 3.74,9.52 5.53,19.12 5.34,28.77 -1.73,9.63 -5.4,19.27 -10.84,28.85 -6.74,9.5 -14.92,18.89 -24.27,28.08 -10.12,9.03 -20.96,17.77 -32.28,26.12 -11.48,8.07 -23.06,15.64 -34.53,22.59 -11.21,6.55 -22.08,12.37 -32.53,17.37 -9.95,4.48 -19.41,8.04 -28.39,10.63 -8.44,2.03 -16.45,3.05 -24.09,3.07 -7.19,-0.46 -14.13,-1.85 -20.9,-4.1 -6.45,-2.5 -12.86,-5.66 -19.29,-9.36 -6.26,-3.57 -12.64,-7.37 -19.21,-11.23 -6.49,-3.27 -13.23,-6.28 -20.24,-8.85 -6.99,-1.56 -14.29,-2.43 -21.91,-2.51 -7.62,1.18 -15.56,3.25 -23.8,6.19 -8.24,4.13 -16.57,8.86 -24.95,14.01 -8.36,5.9 -16.72,11.85 -25.05,17.64 -8.27,5.96 -16.45,11.4 -24.5,16.12 -7.95,4.39 -15.71,7.78 -23.23,10.09 -7.38,1.63 -14.47,2.04 -21.22,1.21 -6.57,-1.63 -12.77,-4.48 -18.55,-8.48 -5.59,-4.75 -10.76,-10.54 -15.46,-17.25 -4.55,-7.28 -8.66,-15.32 -12.32,-23.98 -3.59,-9.03 -6.78,-18.51 -9.61,-28.32 -2.87,-10 -5.45,-20.19 -7.77,-30.47 -2.52,-10.33 -4.87,-20.68 -7.1,-30.96 -2.55,-10.25 -5.05,-20.41 -7.53,-30.42 -2.87,-9.94 -5.76,-19.74 -8.64,-29.36 -3.27,-9.56 -6.52,-18.96 -9.7,-28.18 -3.46,-9.18 -6.75,-18.2 -9.81,-27.06 -3.14,-8.83 -5.9,-17.51 -8.19,-26.02 -2.13,-8.51 -3.58,-16.66 -4.32,-24.47 -0.4,-7.81 -0.02,-15.28 1.16,-22.4 1.6,-7.14 3.99,-13.94 7.13,-20.39 3.53,-6.48 7.76,-12.63 12.62,-18.44 5.13,-5.87 10.79,-11.41 16.88,-16.65 6.22,-5.31 12.77,-10.36 19.57,-15.13 6.76,-4.91 13.68,-9.6 20.71,-14.1 6.85,-4.68 13.76,-9.23 20.7,-13.65 6.69,-4.68 13.39,-9.3 20.1,-13.87 6.44,-4.88 12.92,-9.75 19.44,-14.61 6.28,-5.2 12.65,-10.41 19.13,-15.61 6.29,-5.51 12.73,-10.98 19.36,-16.39 6.5,-5.62 13.22,-11.1 20.19,-16.37 6.88,-5.34 14.05,-10.38 21.53,-15.01 7.42,-4.53 15.19,-8.54 23.3,-11.93 8.09,-3.1 16.55,-5.47 25.41,-7.03"
       stroke-dasharray="10, 1"
       transform="rotate(12.12,400,400)"
       opacity="0.89"
       id="path5"
       style="stroke:url(#linearGradient29)" />
    <path
       d="m 413.24,140.07 c 8.62,-1.11 17.42,-1.36 26.36,-0.78 8.95,1.04 18.07,2.89 27.31,5.5 9.24,3.02 18.6,6.73 28.02,11.08 9.39,4.64 18.81,9.81 28.16,15.46 9.26,5.79 18.37,11.96 27.25,18.44 8.66,6.49 16.95,13.2 24.77,20.08 7.44,6.79 14.24,13.69 20.29,20.66 5.52,6.81 10.14,13.67 13.77,20.56 3,6.68 4.94,13.4 5.78,20.15 0.24,6.54 -0.55,13.14 -2.31,19.79 -2.11,6.47 -4.96,13.04 -8.39,19.71 -3.31,6.52 -6.82,13.19 -10.3,20.02 -2.76,6.72 -5.05,13.64 -6.65,20.77 -0.33,7.06 0.36,14.36 2.19,21.91 3.35,7.52 7.89,15.31 13.56,23.39 6.97,8.06 14.76,16.43 23.09,25.11 8.91,8.68 17.53,17.48 25.53,26.37 7.6,8.89 14,17.88 18.96,26.92 3.87,9.03 5.98,18.1 6.32,27.16 -1.04,9.02 -3.86,18 -8.33,26.86 -5.68,8.78 -12.76,17.38 -21.01,25.73 -9.04,8.18 -18.88,16.02 -29.29,23.44 -10.7,7.14 -21.63,13.76 -32.6,19.77 -10.86,5.63 -21.54,10.55 -31.94,14.68 -10.03,3.67 -19.69,6.5 -28.94,8.42 -8.82,1.46 -17.26,2.03 -25.34,1.69 -7.69,-0.7 -15.11,-2.21 -22.3,-4.45 -6.91,-2.4 -13.71,-5.35 -20.45,-8.73 -6.56,-3.19 -13.16,-6.55 -19.84,-9.94 -6.59,-2.8 -13.34,-5.34 -20.27,-7.48 -6.89,-1.2 -14.01,-1.78 -21.35,-1.66 -7.33,1.26 -14.91,3.29 -22.71,6.09 -7.8,3.87 -15.63,8.27 -23.45,13.03 -7.8,5.46 -15.57,10.96 -23.25,16.34 -7.64,5.57 -15.16,10.69 -22.51,15.19 -7.27,4.26 -14.32,7.64 -21.12,10.07 -6.69,1.87 -13.07,2.65 -19.12,2.32 -5.91,-1.02 -11.45,-3.17 -16.59,-6.38 -5.01,-3.89 -9.61,-8.76 -13.79,-14.52 -4.09,-6.31 -7.77,-13.37 -11.06,-21.07 -3.28,-8.08 -6.21,-16.65 -8.82,-25.6 -2.71,-9.16 -5.17,-18.59 -7.43,-28.17 -2.47,-9.67 -4.82,-19.42 -7.08,-29.17 -2.58,-9.75 -5.14,-19.46 -7.68,-29.08 -2.94,-9.57 -5.88,-19.04 -8.84,-28.35 -3.31,-9.28 -6.61,-18.4 -9.83,-27.36 -3.48,-8.93 -6.8,-17.7 -9.88,-26.3 -3.16,-8.57 -5.95,-16.99 -8.28,-25.23 -2.18,-8.25 -3.71,-16.13 -4.56,-23.66 -0.52,-7.54 -0.28,-14.74 0.71,-21.6 1.4,-6.88 3.57,-13.44 6.47,-19.66 3.29,-6.26 7.26,-12.2 11.84,-17.84 4.88,-5.69 10.29,-11.1 16.15,-16.23 6.01,-5.23 12.37,-10.22 19.01,-14.97 6.64,-4.9 13.47,-9.61 20.44,-14.15 6.84,-4.75 13.77,-9.37 20.74,-13.9 6.77,-4.78 13.57,-9.51 20.38,-14.2 6.58,-4.98 13.19,-9.95 19.83,-14.92 6.43,-5.27 12.93,-10.53 19.5,-15.78 6.4,-5.51 12.93,-10.97 19.6,-16.34 6.54,-5.56 13.28,-10.95 20.23,-16.13 6.85,-5.22 13.96,-10.13 21.34,-14.64 7.32,-4.39 14.95,-8.28 22.9,-11.57 7.92,-3 16.18,-5.31 24.8,-6.85"
       stroke-dasharray="1, 7"
       transform="rotate(16.16,400,400)"
       opacity="0.85"
       id="path6"
       style="stroke:url(#linearGradient30)" />
    <path
       d="m 419.63,150.45 c 8.35,-1.11 16.82,-1.4 25.4,-0.9 8.58,0.92 17.26,2.62 26,5.05 8.74,2.81 17.51,6.3 26.28,10.39 8.72,4.38 17.37,9.29 25.88,14.67 8.4,5.54 16.58,11.46 24.44,17.69 7.64,6.28 14.85,12.8 21.53,19.51 6.32,6.65 11.99,13.44 16.91,20.32 4.45,6.75 8.04,13.57 10.72,20.43 2.14,6.7 3.35,13.43 3.59,20.2 -0.21,6.6 -1.28,13.24 -3.15,19.93 -2.07,6.53 -4.71,13.14 -7.78,19.84 -2.84,6.56 -5.76,13.24 -8.57,20.06 -2.07,6.71 -3.67,13.59 -4.6,20.64 0.24,6.99 1.41,14.18 3.58,21.59 3.54,7.37 8.11,14.98 13.65,22.83 6.68,7.83 14.06,15.93 21.9,24.29 8.35,8.36 16.43,16.78 23.94,25.26 7.21,8.48 13.34,17 18.21,25.52 3.93,8.51 6.31,17.01 7.08,25.44 -0.42,8.39 -2.47,16.68 -6.05,24.8 -4.69,8.03 -10.71,15.83 -17.88,23.34 -7.96,7.34 -16.77,14.31 -26.21,20.83 -9.83,6.26 -20,12 -30.34,17.12 -10.35,4.79 -20.65,8.89 -30.81,12.25 -9.92,2.98 -19.58,5.17 -28.92,6.55 -9.02,0.99 -17.71,1.2 -26.08,0.62 -8.04,-0.86 -15.82,-2.41 -23.36,-4.58 -7.27,-2.24 -14.4,-4.93 -21.41,-7.97 -6.83,-2.81 -13.64,-5.74 -20.44,-8.65 -6.71,-2.35 -13.5,-4.45 -20.37,-6.18 -6.83,-0.87 -13.79,-1.19 -20.9,-0.9 -7.09,1.32 -14.35,3.31 -21.74,5.97 -7.4,3.62 -14.77,7.7 -22.06,12.09 -7.29,5.03 -14.49,10.11 -21.57,15.07 -7.04,5.18 -13.93,9.97 -20.62,14.23 -6.63,4.09 -13.02,7.42 -19.15,9.91 -8.91,2.58 -24.97,1.93 -32.03,-1.34 -4.49,-3.1 -8.61,-7.13 -12.35,-12 -3.69,-5.39 -7.03,-11.51 -10.03,-18.26 -3.02,-7.14 -5.76,-14.8 -8.22,-22.86 -2.6,-8.31 -5,-16.92 -7.23,-25.75 -2.47,-8.95 -4.85,-18.03 -7.17,-27.16 -2.64,-9.18 -5.26,-18.36 -7.89,-27.49 -3,-9.13 -6.01,-18.18 -9.03,-27.12 -3.36,-8.91 -6.69,-17.7 -9.94,-26.34 -3.49,-8.62 -6.82,-17.1 -9.92,-25.41 -3.16,-8.29 -5.97,-16.44 -8.34,-24.4 -2.22,-7.97 -3.81,-15.59 -4.76,-22.87 -0.63,-7.28 -0.54,-14.24 0.28,-20.87 1.2,-6.66 3.14,-13 5.79,-19.03 3.03,-6.08 6.72,-11.87 11.01,-17.37 4.6,-5.58 9.72,-10.9 15.31,-15.97 5.76,-5.18 11.89,-10.14 18.31,-14.9 6.48,-4.92 13.17,-9.68 20.02,-14.29 6.78,-4.82 13.66,-9.54 20.62,-14.17 6.8,-4.88 13.64,-9.71 20.51,-14.52 6.68,-5.06 13.4,-10.12 20.13,-15.17 6.56,-5.31 13.16,-10.61 19.83,-15.87 6.51,-5.49 13.12,-10.91 19.84,-16.23 6.6,-5.46 13.36,-10.75 20.29,-15.81 6.85,-5.08 13.91,-9.85 21.2,-14.22 7.24,-4.25 14.74,-8 22.51,-11.19 7.75,-2.9 15.8,-5.14 24.15,-6.65"
       stroke-dasharray="10, 3"
       transform="rotate(20.2,400,400)"
       opacity="0.81"
       id="path7"
       style="stroke:url(#linearGradient31)" />
    <path
       d="m 424.79,160.83 c 8.05,-1.1 16.16,-1.43 24.32,-1.01 8.15,0.81 16.34,2.36 24.53,4.6 8.17,2.61 16.31,5.85 24.36,9.68 7.99,4.12 15.84,8.75 23.48,13.84 7.52,5.26 14.75,10.91 21.61,16.87 6.63,6.04 12.8,12.34 18.42,18.83 5.29,6.47 9.93,13.1 13.85,19.83 3.51,6.65 6.23,13.38 8.12,20.17 1.48,6.66 2.12,13.37 1.95,20.11 -0.49,6.6 -1.69,13.25 -3.54,19.94 -1.91,6.56 -4.25,13.19 -6.88,19.88 -2.32,6.57 -4.64,13.25 -6.79,20.02 -1.41,6.69 -2.36,13.52 -2.68,20.48 0.76,6.91 2.33,13.98 4.8,21.22 3.67,7.22 8.23,14.63 13.62,22.23 6.39,7.59 13.36,15.4 20.71,23.41 7.81,8.02 15.36,16.06 22.41,24.09 6.79,8.04 12.65,16.07 17.39,24.05 3.95,7.96 6.52,15.86 7.67,23.65 0.1,7.74 -1.26,15.32 -4.02,22.7 -3.78,7.28 -8.8,14.3 -14.94,20.99 -6.9,6.53 -14.67,12.66 -23.12,18.34 -8.88,5.44 -18.2,10.35 -27.79,14.68 -9.71,4.03 -19.49,7.42 -29.23,10.12 -9.63,2.37 -19.1,4.04 -28.35,4.98 -9.02,0.64 -17.79,0.58 -26.28,-0.16 -8.24,-0.93 -16.23,-2.44 -23.99,-4.48 -7.54,-2.04 -14.9,-4.44 -22.11,-7.12 -7.06,-2.43 -14.02,-4.93 -20.93,-7.39 -6.81,-1.92 -13.62,-3.61 -20.45,-4.97 -6.78,-0.57 -13.62,-0.66 -20.52,-0.21 -6.88,1.36 -13.85,3.31 -20.88,5.83 -7.04,3.38 -13.98,7.15 -20.8,11.19 -6.81,4.62 -13.49,9.27 -20.01,13.84 -6.49,4.79 -12.8,9.24 -18.89,13.24 -6.04,3.9 -11.84,7.13 -17.36,9.64 -8.04,2.8 -22.47,3.29 -28.8,0.91 -5.91,-4.04 -16.07,-16.86 -20.38,-25.34 -2.85,-6.22 -5.45,-12.97 -7.83,-20.16 -2.54,-7.44 -4.92,-15.21 -7.18,-23.25 -2.5,-8.18 -4.93,-16.53 -7.32,-25 -2.72,-8.53 -5.43,-17.12 -8.14,-25.71 -3.07,-8.6 -6.14,-17.17 -9.22,-25.66 -3.39,-8.49 -6.75,-16.88 -10.02,-25.16 -3.49,-8.26 -6.82,-16.4 -9.92,-24.39 -3.15,-7.99 -5.96,-15.83 -8.34,-23.52 -2.25,-7.68 -3.9,-15.04 -4.93,-22.07 -0.74,-7.04 -0.79,-13.77 -0.15,-20.2 1.01,-6.46 2.72,-12.62 5.1,-18.5 2.76,-5.93 6.15,-11.6 10.14,-17.01 4.29,-5.49 9.1,-10.75 14.38,-15.79 5.47,-5.15 11.32,-10.12 17.49,-14.92 6.25,-4.95 12.75,-9.77 19.42,-14.47 6.66,-4.88 13.44,-9.69 20.31,-14.43 6.77,-4.96 13.61,-9.89 20.48,-14.78 6.72,-5.13 13.49,-10.25 20.27,-15.35 6.64,-5.33 13.32,-10.63 20.05,-15.88 6.6,-5.44 13.27,-10.79 20.03,-16.03 6.65,-5.34 13.42,-10.51 20.34,-15.43 6.83,-4.93 13.84,-9.54 21.03,-13.76 7.15,-4.09 14.51,-7.7 22.09,-10.77 7.56,-2.79 15.36,-4.96 23.41,-6.44"
       stroke-dasharray="7, 7"
       transform="rotate(24.24,400,400)"
       opacity="0.77"
       id="path8"
       style="stroke:url(#linearGradient32)" />
    <path
       d="m 428.41,171.21 c 7.71,-1.09 15.43,-1.45 23.12,-1.11 7.69,0.71 15.34,2.1 22.93,4.16 7.56,2.39 15.02,5.4 22.33,8.96 7.24,3.84 14.28,8.18 21.05,12.97 6.65,4.96 12.95,10.31 18.85,15.99 5.69,5.76 10.9,11.79 15.55,18.03 4.37,6.25 8.11,12.67 11.18,19.22 2.73,6.49 4.75,13.09 6.04,19.75 0.97,6.57 1.23,13.2 0.8,19.87 -0.62,6.56 -1.81,13.17 -3.51,19.82 -1.66,6.54 -3.62,13.13 -5.76,19.78 -1.79,6.55 -3.5,13.19 -5.01,19.89 -0.79,6.64 -1.14,13.38 -0.91,20.23 1.21,6.8 3.14,13.73 5.85,20.8 3.76,7.03 8.28,14.22 13.49,21.56 6.08,7.33 12.65,14.82 19.53,22.47 7.28,7.65 14.32,15.27 20.9,22.85 6.38,7.57 11.94,15.09 16.52,22.51 3.92,7.41 6.64,14.7 8.09,21.83 0.55,7.09 -0.22,13.98 -2.25,20.62 -2.93,6.55 -7.04,12.81 -12.19,18.72 -5.88,5.76 -12.62,11.12 -20.07,16.02 -7.91,4.69 -16.32,8.87 -25.08,12.49 -8.95,3.37 -18.07,6.14 -27.26,8.28 -9.17,1.88 -18.28,3.13 -27.27,3.73 -8.84,0.38 -17.51,0.15 -25.96,-0.66 -8.27,-0.93 -16.33,-2.35 -24.17,-4.2 -7.67,-1.81 -15.16,-3.91 -22.47,-6.22 -7.19,-2.04 -14.25,-4.12 -21.21,-6.15 -6.87,-1.52 -13.69,-2.83 -20.45,-3.84 -6.73,-0.3 -13.44,-0.18 -20.15,0.4 -6.69,1.39 -13.39,3.29 -20.1,5.67 -6.7,3.15 -13.26,6.62 -19.64,10.31 -6.39,4.23 -12.6,8.49 -18.61,12.66 -6.01,4.41 -11.79,8.52 -17.35,12.25 -8.16,5.22 -23.08,12.17 -29.78,13.57 -6.35,0 -17.48,-4.7 -22.29,-9.31 -4.59,-5.94 -12.65,-21.45 -16.27,-30.71 -2.53,-6.58 -4.93,-13.51 -7.24,-20.75 -2.56,-7.38 -5.07,-14.99 -7.56,-22.74 -2.79,-7.85 -5.59,-15.79 -8.39,-23.78 -3.13,-8.02 -6.26,-16.05 -9.39,-24.04 -3.42,-8 -6.79,-15.95 -10.07,-23.82 -3.47,-7.85 -6.78,-15.62 -9.86,-23.26 -3.13,-7.64 -5.93,-15.16 -8.32,-22.55 -2.26,-7.39 -3.95,-14.48 -5.06,-21.27 -0.83,-6.8 -1.02,-13.32 -0.55,-19.56 0.81,-6.27 2.29,-12.28 4.41,-18.03 2.48,-5.8 5.57,-11.37 9.23,-16.72 3.96,-5.42 8.44,-10.64 13.37,-15.67 5.15,-5.15 10.69,-10.13 16.56,-14.98 5.97,-4.98 12.21,-9.86 18.66,-14.64 6.46,-4.95 13.07,-9.83 19.8,-14.66 6.67,-5.03 13.43,-10.02 20.23,-14.98 6.71,-5.17 13.46,-10.32 20.24,-15.44 6.66,-5.31 13.37,-10.59 20.11,-15.79 6.64,-5.36 13.33,-10.63 20.09,-15.75 6.67,-5.21 13.43,-10.22 20.29,-14.99 6.8,-4.75 13.73,-9.19 20.8,-13.25 7.03,-3.92 14.23,-7.38 21.59,-10.32 7.34,-2.69 14.87,-4.78 22.58,-6.22"
       stroke-dasharray="11, 4"
       transform="rotate(28.28,400,400)"
       opacity="0.73"
       id="path9"
       style="stroke:url(#linearGradient33)" />
    <path
       d="m 430.27,181.59 c 7.33,-1.07 14.61,-1.47 21.81,-1.2 7.19,0.6 14.28,1.85 21.25,3.72 6.93,2.18 13.7,4.95 20.27,8.24 6.5,3.56 12.74,7.6 18.68,12.07 5.81,4.65 11.25,9.69 16.27,15.04 4.84,5.46 9.19,11.2 13,17.15 3.57,5.99 6.57,12.16 8.94,18.47 2.11,6.3 3.6,12.7 4.44,19.18 0.63,6.43 0.67,12.92 0.14,19.47 -0.62,6.46 -1.69,12.97 -3.14,19.53 -1.33,6.46 -2.86,12.98 -4.49,19.54 -1.24,6.49 -2.37,13.03 -3.26,19.64 -0.23,6.54 -0.02,13.17 0.7,19.87 1.59,6.66 3.81,13.42 6.7,20.28 3.81,6.83 8.25,13.78 13.28,20.83 5.76,7.04 11.93,14.2 18.35,21.46 6.77,7.26 13.3,14.45 19.42,21.55 5.98,7.1 11.23,14.09 15.63,20.95 3.85,6.85 6.65,13.53 8.33,20.02 0.92,6.44 0.67,12.66 -0.71,18.61 -2.19,5.85 -5.45,11.39 -9.69,16.58 -4.91,5.05 -10.66,9.69 -17.12,13.89 -6.92,4.02 -14.38,7.56 -22.26,10.57 -8.11,2.8 -16.48,5.06 -25,6.76 -8.57,1.48 -17.18,2.41 -25.75,2.77 -8.5,0.2 -16.9,-0.11 -25.15,-0.92 -8.13,-0.87 -16.1,-2.15 -23.88,-3.79 -7.65,-1.54 -15.14,-3.32 -22.46,-5.26 -7.21,-1.66 -14.28,-3.34 -21.22,-4.96 -6.87,-1.15 -13.64,-2.11 -20.32,-2.8 -6.64,-0.06 -13.22,0.24 -19.73,0.93 -6.51,1.41 -12.96,3.25 -19.37,5.49 -6.4,2.92 -12.61,6.11 -18.61,9.48 -6,3.85 -11.8,7.72 -17.37,11.51 -5.57,4.03 -10.91,7.81 -16,11.25 -7.49,4.91 -21.13,11.74 -27.24,13.38 -10.96,-1.18 -24.96,-11.3 -28.89,-17.37 -2.67,-4.54 -5.18,-9.59 -7.55,-15.09 -2.55,-5.74 -5.02,-11.86 -7.4,-18.29 -2.64,-6.59 -5.24,-13.43 -7.83,-20.46 -2.87,-7.13 -5.75,-14.39 -8.64,-21.74 -3.18,-7.4 -6.37,-14.85 -9.54,-22.31 -3.42,-7.47 -6.79,-14.93 -10.06,-22.34 -3.44,-7.41 -6.72,-14.77 -9.77,-22.04 -3.09,-7.26 -5.86,-14.44 -8.24,-21.52 -2.27,-7.07 -3.99,-13.88 -5.16,-20.43 -0.93,-6.56 -1.24,-12.87 -0.93,-18.93 0.62,-6.09 1.87,-11.95 3.73,-17.59 2.19,-5.68 4.96,-11.17 8.29,-16.46 3.62,-5.36 7.74,-10.55 12.31,-15.59 4.79,-5.13 9.97,-10.14 15.49,-15.02 5.65,-5.01 11.58,-9.94 17.74,-14.78 6.2,-5 12.59,-9.94 19.1,-14.83 6.5,-5.07 13.1,-10.1 19.77,-15.1 6.61,-5.17 13.27,-10.32 19.98,-15.42 6.62,-5.26 13.28,-10.47 19.98,-15.6 6.61,-5.25 13.27,-10.39 19.98,-15.38 6.63,-5.04 13.34,-9.89 20.11,-14.49 6.72,-4.55 13.54,-8.8 20.45,-12.69 6.88,-3.74 13.87,-7.04 20.98,-9.85 7.09,-2.57 14.31,-4.58 21.65,-5.98"
       stroke-dasharray="3, 6"
       transform="rotate(32.32,400,400)"
       opacity="0.7"
       id="path10"
       style="stroke:url(#linearGradient34)" />
    <path
       d="m 430.24,191.97 c 6.93,-1.05 13.74,-1.47 20.42,-1.28 6.67,0.5 13.19,1.61 19.53,3.29 6.31,1.98 12.41,4.5 18.26,7.52 5.78,3.27 11.27,7 16.43,11.15 5.05,4.33 9.71,9.03 13.95,14.04 4.09,5.14 7.7,10.55 10.81,16.18 2.92,5.69 5.31,11.58 7.15,17.61 1.66,6.04 2.77,12.2 3.33,18.46 0.44,6.22 0.39,12.53 -0.11,18.89 -0.51,6.31 -1.36,12.67 -2.49,19.07 -0.95,6.34 -2.02,12.73 -3.13,19.15 -0.7,6.36 -1.26,12.78 -1.59,19.23 0.3,6.41 0.99,12.87 2.13,19.39 1.92,6.49 4.38,13.04 7.4,19.65 3.81,6.6 8.15,13.27 12.96,20.01 5.45,6.73 11.22,13.53 17.18,20.38 6.27,6.86 12.32,13.6 17.99,20.22 5.57,6.61 10.51,13.08 14.7,19.39 3.75,6.28 6.57,12.37 8.43,18.24 1.31,8.61 -2.2,24.33 -6.85,31.29 -4.01,4.41 -8.82,8.42 -14.32,12.01 -5.96,3.44 -12.47,6.42 -19.42,8.92 -7.24,2.34 -14.78,4.19 -22.54,5.53 -7.87,1.19 -15.85,1.88 -23.87,2.09 -8.02,0.11 -16,-0.22 -23.9,-0.97 -7.84,-0.76 -15.56,-1.86 -23.15,-3.24 -7.49,-1.27 -14.85,-2.72 -22.05,-4.29 -7.12,-1.3 -14.11,-2.6 -20.95,-3.85 -6.78,-0.8 -13.45,-1.43 -20,-1.85 -6.51,0.16 -12.92,0.62 -19.24,1.4 -6.3,1.42 -12.51,3.18 -18.64,5.29 -6.12,2.7 -12.01,5.62 -17.67,8.68 -5.66,3.49 -11.1,6.99 -16.29,10.42 -7.68,5.38 -21.79,14.8 -28.21,18.46 -11.71,4.23 -26.91,3.46 -31.21,0.63 -4.24,-3.88 -12.04,-14.84 -15.73,-21.72 -2.61,-4.94 -5.15,-10.27 -7.63,-15.93 -2.73,-5.8 -5.43,-11.89 -8.12,-18.19 -2.95,-6.4 -5.91,-12.97 -8.87,-19.67 -3.23,-6.75 -6.45,-13.59 -9.64,-20.48 -3.41,-6.91 -6.77,-13.85 -10.02,-20.78 -3.39,-6.93 -6.61,-13.85 -9.62,-20.71 -3.03,-6.87 -5.76,-13.68 -8.13,-20.43 -2.25,-6.74 -4,-13.27 -5.22,-19.56 -1,-6.31 -1.43,-12.4 -1.28,-18.28 0.95,-8.77 6.19,-25.41 10.4,-33.34 3.27,-5.3 7.01,-10.46 11.2,-15.49 4.41,-5.11 9.2,-10.13 14.34,-15.04 5.28,-5.02 10.86,-9.98 16.67,-14.86 5.89,-5.02 11.97,-9.98 18.2,-14.91 6.26,-5.07 12.63,-10.1 19.09,-15.1 6.43,-5.14 12.94,-10.24 19.48,-15.29 6.51,-5.18 13.05,-10.29 19.63,-15.31 6.52,-5.11 13.08,-10.09 19.66,-14.92 6.54,-4.86 13.13,-9.51 19.75,-13.91 6.59,-4.36 13.24,-8.41 19.94,-12.1 6.69,-3.56 13.44,-6.7 20.25,-9.37 6.8,-2.45 13.68,-4.37 20.6,-5.72"
       stroke-dasharray="5, 9"
       transform="rotate(36.36,400,400)"
       opacity="0.66"
       id="path11"
       style="stroke:url(#linearGradient35)" />
    <path
       d="m 428.34,202.35 c 6.49,-1.03 12.82,-1.47 18.98,-1.35 6.14,0.41 12.09,1.38 17.82,2.88 11.37,3.8 21.7,9.58 30.72,17.02 8.64,8.15 15.7,17.64 20.95,28.13 4.69,10.77 7.51,22.27 8.46,34.22 0.72,11.92 0.03,24.18 -1.64,36.59 -0.83,12.27 -1.63,24.72 -1.77,37.25 2.11,12.41 5.79,25 11.29,37.68 3.77,6.33 7.98,12.7 12.57,19.09 5.12,6.39 10.5,12.81 16.02,19.25 5.79,6.43 11.36,12.73 16.6,18.86 5.16,6.12 9.77,12.08 13.73,17.84 6.79,11.45 10.17,22.01 10.01,31.44 -2.49,9.14 -8.38,16.95 -17.13,23.19 -10.44,5.77 -22.88,9.85 -36.58,12.12 -14.32,1.88 -29.16,2.1 -44.01,0.82 -14.78,-1.15 -29.28,-3.26 -43.28,-5.94 -13.76,-1.6 -27.07,-2.98 -39.82,-3.79 -6.33,0.34 -12.54,0.93 -18.64,1.79 -6.08,1.4 -12.05,3.1 -17.9,5.07 -5.85,2.49 -11.45,5.14 -16.81,7.91 -5.36,3.15 -10.48,6.3 -15.35,9.38 -9.77,6.76 -18.58,12.53 -26.38,16.86 -7.91,3.99 -14.87,5.9 -20.92,5.64 -6.32,-1.23 -11.91,-4.72 -16.87,-10.29 -5.54,-6.49 -10.73,-14.76 -15.68,-24.46 -5.85,-10.27 -11.67,-21.59 -17.45,-33.62 -6.72,-12.24 -13.34,-24.93 -19.6,-37.77 -3.33,-6.43 -6.49,-12.88 -9.44,-19.32 -2.96,-6.45 -5.63,-12.87 -7.97,-19.27 -2.22,-6.4 -3.97,-12.61 -5.24,-18.65 -1.06,-6.04 -1.6,-11.9 -1.6,-17.6 0.81,-11.45 3.81,-22.29 8.82,-32.56 6.06,-10.51 13.89,-20.6 23.15,-30.32 9.91,-10.12 20.89,-20.03 32.6,-29.72 11.91,-10.19 24.3,-20.24 36.94,-30.03 12.57,-10.2 25.33,-20.04 38.14,-29.28 12.71,-9.28 25.56,-17.64 38.44,-24.75 6.44,-3.36 12.9,-6.33 19.37,-8.86 6.47,-2.32 12.96,-4.15 19.46,-5.45"
       stroke-dasharray="4, 4"
       transform="rotate(40.4,400,400)"
       opacity="0.62"
       id="path12"
       style="stroke:url(#linearGradient36)" />
    <path
       d="m 424.67,212.73 c 12.07,-1.74 23.35,-1.33 33.68,1.07 10.22,3.38 19.33,8.6 27.13,15.37 7.49,7.47 13.49,16.22 17.86,25.95 4,10.06 6.39,20.87 7.25,32.15 0.86,11.34 0.64,23.03 -0.26,34.9 0.01,11.8 0.19,23.76 1.02,35.78 2.83,11.95 7.02,24 12.68,36.05 7.94,12.04 17.12,24.13 26.97,36.14 10.79,12 20.36,23.32 28.01,33.81 6.54,10.41 10.14,19.87 10.66,28.2 -1.42,8.09 -5.9,14.88 -13.01,20.22 -8.66,4.99 -19.3,8.44 -31.3,10.33 -12.7,1.64 -26.12,1.88 -39.77,0.87 -13.72,-0.78 -27.37,-2.33 -40.66,-4.32 -13.16,-0.97 -25.93,-1.76 -38.18,-2.07 -12.15,1.44 -23.86,3.75 -35.02,6.95 -11.17,5 -21.34,10.31 -30.52,15.56 -9.24,6.06 -17.55,11.26 -24.92,15.24 -7.52,3.78 -14.19,5.79 -20.07,5.9 -6.19,-0.62 -11.78,-3.25 -16.83,-7.77 -5.65,-5.27 -11.02,-12.23 -16.18,-20.58 -6,-8.85 -11.95,-18.8 -17.84,-29.53 -6.7,-10.95 -13.25,-22.46 -19.42,-34.26 -6.54,-11.85 -12.33,-23.89 -16.96,-35.95 -4.24,-12.05 -6.62,-23.58 -7.11,-34.53 0.45,-11.03 2.93,-21.58 7.27,-31.68 5.32,-10.29 12.32,-20.27 20.7,-29.93 9.05,-10 19.18,-19.82 30.07,-29.43 11.17,-10.01 22.87,-19.85 34.86,-29.41 12.03,-9.84 24.26,-19.3 36.53,-28.14 12.23,-8.79 24.54,-16.7 36.79,-23.39 12.25,-6.17 24.49,-10.77 36.56,-13.5"
       stroke-dasharray="1, 7"
       transform="rotate(44.44,400,400)"
       opacity="0.58"
       id="path13"
       style="stroke:url(#linearGradient37)" />
    <path
       d="m 419.46,223.11 c 11.14,-1.7 21.39,-1.44 30.66,0.65 9.16,2.97 17.2,7.63 23.97,13.74 6.56,6.77 11.74,14.76 15.49,23.7 3.55,9.29 5.75,19.33 6.73,29.87 1.14,10.65 1.49,21.68 1.38,32.9 0.83,11.21 1.89,22.59 3.56,33.99 3.43,11.37 7.98,22.8 13.73,34.16 7.63,11.36 16.23,22.67 25.29,33.8 9.86,11.12 18.62,21.49 25.7,30.99 6.24,9.43 9.95,17.89 11.01,25.23 -0.54,7.16 -3.79,13.1 -9.42,17.7 -7.01,4.36 -15.92,7.37 -26.24,9.01 -11.03,1.54 -22.93,1.89 -35.24,1.2 -12.49,-0.37 -25.09,-1.36 -37.48,-2.72 -12.35,-0.4 -24.42,-0.65 -36.04,-0.53 -11.56,1.63 -22.7,3.95 -33.31,6.95 -10.62,4.54 -20.27,9.28 -28.98,13.92 -8.78,5.38 -16.7,10.02 -23.76,13.6 -7.23,3.53 -13.72,5.53 -19.52,5.9 -6.14,-0.17 -11.78,-2.11 -16.98,-5.73 -5.76,-4.24 -11.3,-10.03 -16.66,-17.14 -6.1,-7.56 -12.15,-16.21 -18.09,-25.7 -6.63,-9.7 -13.07,-20.05 -19.1,-30.81 -6.34,-10.81 -11.93,-21.94 -16.44,-33.22 -4.14,-11.29 -6.59,-22.22 -7.3,-32.72 0.12,-10.55 2.1,-20.76 5.8,-30.62 4.58,-10.01 10.74,-19.8 18.22,-29.32 8.14,-9.79 17.34,-19.43 27.32,-28.86 10.32,-9.73 21.2,-19.28 32.41,-28.51 11.32,-9.43 22.86,-18.44 34.45,-26.81 11.6,-8.28 23.24,-15.7 34.75,-21.96 11.54,-5.76 22.96,-10.08 34.09,-12.66"
       stroke-dasharray="10, 11"
       transform="rotate(48.48,400,400)"
       opacity="0.54"
       id="path14"
       style="stroke:url(#linearGradient38)" />
    <path
       d="m 413.05,233.49 c 10.18,-1.66 19.46,-1.52 27.75,0.27 8.21,2.56 15.33,6.68 21.28,12.15 5.81,6.05 10.4,13.27 13.77,21.4 3.29,8.48 5.5,17.7 6.74,27.43 1.53,9.88 2.49,20.15 3.16,30.63 1.58,10.51 3.42,21.19 5.81,31.89 3.89,10.7 8.69,21.42 14.41,32.02 7.28,10.61 15.28,21.11 23.57,31.35 8.96,10.23 16.93,19.68 23.43,28.25 5.87,8.51 9.6,16.06 11.05,22.55 0.17,6.36 -2.02,11.59 -6.35,15.61 -5.51,3.88 -12.82,6.57 -21.5,8.1 -9.39,1.52 -19.73,2.06 -30.61,1.74 -11.15,0.04 -22.54,-0.43 -33.9,-1.19 -11.37,0.1 -22.59,0.32 -33.47,0.81 -10.84,1.78 -21.34,4.08 -31.38,6.87 -10.03,4.11 -19.19,8.31 -27.48,12.36 -8.37,4.74 -15.95,8.82 -22.79,11.99 -7.01,3.21 -13.39,5.13 -19.19,5.65 -6.12,0.14 -11.84,-1.26 -17.19,-4.15 -5.87,-3.36 -11.55,-8.13 -17.07,-14.16 -6.16,-6.38 -12.24,-13.84 -18.18,-22.17 -6.51,-8.51 -12.79,-17.73 -18.65,-27.46 -6.08,-9.78 -11.45,-19.99 -15.8,-30.47 -4.03,-10.49 -6.51,-20.77 -7.41,-30.75 -0.18,-10.03 1.33,-19.83 4.41,-29.38 3.86,-9.66 9.19,-19.16 15.76,-28.45 7.19,-9.48 15.41,-18.84 24.42,-27.99 9.37,-9.36 19.32,-18.52 29.63,-27.35 10.48,-8.93 21.2,-17.44 31.97,-25.3 10.83,-7.74 21.67,-14.64 32.36,-20.45 10.72,-5.35 21.26,-9.36 31.45,-11.8"
       stroke-dasharray="10, 6"
       transform="rotate(52.52,400,400)"
       opacity="0.51"
       id="path15"
       style="stroke:url(#linearGradient39)" />
    <path
       d="m 405.82,243.87 c 9.24,-1.6 17.61,-1.59 25.03,-0.08 7.36,2.18 13.72,5.78 19.04,10.6 5.23,5.36 9.42,11.79 12.6,19.09 3.2,7.65 5.54,16 7.15,24.86 1.96,9.04 3.52,18.48 4.92,28.14 2.24,9.73 4.74,19.62 7.69,29.53 4.21,9.93 9.14,19.87 14.76,29.66 6.88,9.81 14.26,19.46 21.79,28.81 8.1,9.35 15.29,17.92 21.21,25.62 7.3,11.03 10.89,28.16 7.02,34.07 -4.19,3.52 -10.03,6.01 -17.19,7.53 -7.81,1.58 -16.6,2.34 -26.04,2.41 -9.72,0.43 -19.83,0.45 -30.04,0.23 -10.28,0.54 -20.53,1.14 -30.57,1.94 -10.03,1.88 -19.81,4.12 -29.23,6.71 -9.43,3.69 -18.08,7.38 -25.99,10.89 -7.97,4.12 -15.27,7.66 -21.92,10.42 -6.83,2.86 -13.13,4.63 -18.94,5.2 -6.12,0.33 -11.91,-0.67 -17.39,-2.97 -5.94,-2.65 -11.71,-6.57 -17.33,-11.64 -6.15,-5.35 -12.2,-11.74 -18.08,-18.99 -6.33,-7.41 -12.4,-15.55 -18.03,-24.28 -5.79,-8.78 -10.91,-18.05 -15.09,-27.72 -3.89,-9.66 -6.37,-19.25 -7.42,-28.66 -0.45,-9.44 0.63,-18.76 3.12,-27.9 3.17,-9.23 7.69,-18.35 13.36,-27.3 6.23,-9.08 13.46,-18.05 21.44,-26.81 8.35,-8.9 17.3,-17.59 26.62,-25.93 9.51,-8.38 19.29,-16.32 29.14,-23.64 9.94,-7.16 19.89,-13.52 29.68,-18.88 9.83,-4.92 19.45,-8.63 28.69,-10.91"
       stroke-dasharray="10, 2"
       transform="rotate(56.56,400,400)"
       opacity="0.47"
       id="path16"
       style="stroke:url(#linearGradient40)" />
    <path
       d="m 398.24,254.25 c 8.31,-1.53 15.82,-1.63 22.48,-0.39 6.61,1.83 12.35,4.92 17.18,9.11 4.81,4.68 8.76,10.34 11.88,16.8 3.22,6.79 5.78,14.26 7.8,22.22 2.39,8.15 4.51,16.7 6.55,25.47 2.78,8.86 5.8,17.89 9.17,26.95 4.41,9.09 9.36,18.18 14.79,27.11 6.42,8.96 13.18,17.75 19.98,26.22 7.26,8.47 13.7,16.18 19.04,23.09 6.77,9.89 11.17,25.23 8.59,30.59 -3.06,3.24 -7.59,5.63 -13.37,7.2 -6.34,1.68 -13.65,2.7 -21.67,3.14 -8.31,0.8 -17.09,1.26 -26.1,1.5 -9.1,0.91 -18.31,1.84 -27.44,2.87 -9.12,1.93 -18.13,4.1 -26.89,6.48 -8.76,3.29 -16.9,6.5 -24.41,9.5 -7.57,3.55 -14.59,6.56 -21.07,8.91 -6.64,2.49 -12.86,4.05 -18.68,4.6 -6.08,0.42 -11.9,-0.3 -17.47,-2.15 -5.94,-2.09 -11.74,-5.3 -17.38,-9.55 -6.07,-4.47 -12.01,-9.91 -17.75,-16.18 -6.09,-6.4 -11.9,-13.54 -17.26,-21.3 -5.48,-7.81 -10.31,-16.17 -14.29,-24.99 -3.72,-8.83 -6.17,-17.68 -7.35,-26.46 -0.66,-8.79 0.02,-17.55 1.96,-26.2 2.53,-8.7 6.27,-17.34 11.06,-25.84 5.3,-8.59 11.52,-17.07 18.46,-25.35 7.3,-8.35 15.18,-16.48 23.45,-24.26 8.48,-7.76 17.24,-15.1 26.09,-21.83 8.95,-6.55 17.93,-12.37 26.77,-17.25 8.87,-4.49 17.56,-7.89 25.88,-10.01"
       stroke-dasharray="5, 6"
       transform="rotate(60.6,400,400)"
       opacity="0.43"
       id="path17"
       style="stroke:url(#linearGradient41)" />
    <path
       d="m 390.76,264.63 c 7.42,-1.45 14.14,-1.64 20.13,-0.65 5.96,1.49 11.18,4.1 15.66,7.69 4.49,4.02 8.3,8.92 11.46,14.56 3.3,5.93 6.11,12.5 8.52,19.54 2.77,7.23 5.37,14.84 7.93,22.68 3.2,7.94 6.58,16.06 10.23,24.2 4.48,8.2 9.33,16.39 14.5,24.44 5.94,8.08 12.07,15.99 18.15,23.59 6.45,7.61 12.16,14.52 16.92,20.69 8.62,15.76 5.67,31.83 -0.59,34.66 -5.01,1.8 -10.96,3.06 -17.63,3.85 -6.94,1.12 -14.41,1.96 -22.21,2.59 -7.91,1.2 -16.02,2.38 -24.18,3.58 -8.17,1.94 -16.34,4.01 -24.4,6.18 -8.06,2.9 -15.64,5.68 -22.74,8.21 -7.13,3 -13.85,5.52 -20.14,7.47 -6.42,2.1 -12.51,3.43 -18.28,3.9 -6,0.41 -11.78,-0.13 -17.35,-1.64 -5.87,-1.66 -11.61,-4.31 -17.18,-7.88 -5.9,-3.72 -11.66,-8.33 -17.19,-13.72 -5.78,-5.5 -11.27,-11.71 -16.33,-18.56 -5.11,-6.89 -9.64,-14.35 -13.38,-22.32 -3.53,-7.97 -5.92,-16.05 -7.19,-24.14 -0.85,-8.1 -0.51,-16.22 0.94,-24.28 1.93,-8.09 4.94,-16.15 8.9,-24.1 4.39,-7.99 9.63,-15.89 15.55,-23.59 6.23,-7.72 13.03,-15.22 20.23,-22.37 7.39,-7.1 15.07,-13.78 22.88,-19.89 7.91,-5.94 15.87,-11.19 23.73,-15.59 7.89,-4.06 15.63,-7.15 23.06,-9.1"
       stroke-dasharray="3, 11"
       transform="rotate(64.64,400,400)"
       opacity="0.39"
       id="path18"
       style="stroke:url(#linearGradient42)" />
    <path
       d="m 383.85,275.01 c 9.57,-1.49 25.73,1.4 32.33,5.5 4.24,3.38 7.96,7.55 11.2,12.38 3.38,5.09 6.41,10.77 9.17,16.88 3.07,6.29 6.04,12.94 8.99,19.83 3.47,6.99 7.07,14.15 10.85,21.35 4.42,7.27 9.08,14.53 13.92,21.68 5.42,7.18 10.92,14.2 16.3,20.96 5.67,6.76 10.68,12.9 14.86,18.4 8.07,14.15 7.18,29.08 2.45,32.01 -6.23,2.66 -22.79,6.44 -32.52,7.96 -6.72,1.41 -13.74,2.76 -20.91,4.08 -7.19,1.91 -14.49,3.86 -21.8,5.81 -7.3,2.54 -14.29,4.9 -20.91,7 -6.66,2.49 -13.02,4.56 -19.06,6.12 -9.08,2.26 -26.33,3.27 -34.63,1.77 -5.7,-1.36 -11.28,-3.55 -16.68,-6.56 -5.65,-3.11 -11.13,-7 -16.38,-11.62 -5.42,-4.69 -10.54,-10.07 -15.24,-16.05 -4.73,-6.02 -8.92,-12.61 -12.4,-19.72 -3.3,-7.12 -5.6,-14.4 -6.92,-21.74 -0.99,-7.34 -0.95,-14.75 0.06,-22.14 1.4,-7.4 3.75,-14.8 6.93,-22.1 3.54,-7.32 7.84,-14.54 12.76,-21.57 5.2,-7.02 10.94,-13.83 17.06,-20.3 6.29,-6.39 12.89,-12.39 19.64,-17.86 6.85,-5.3 13.78,-9.98 20.65,-13.9 6.91,-3.62 13.71,-6.39 20.28,-8.17"
       stroke-dasharray="7, 4"
       transform="rotate(68.68,400,400)"
       opacity="0.35"
       id="path19"
       style="stroke:url(#linearGradient43)" />
    <path
       d="m 377.95,285.39 c 11.5,-2.17 21.25,-0.59 29.15,4.11 8.09,5.84 14.85,14.34 20.58,24.59 6.83,10.85 13.66,22.98 20.68,35.44 8.96,12.66 18.44,25.37 27.51,37.23 9.99,11.86 17.17,21.64 20.9,29.17 2.7,7.56 1.34,13.08 -3.6,16.69 -6.05,4.16 -15.04,7.1 -25.96,9.1 -11.27,3.47 -23.81,6.77 -36.85,9.75 -13.05,4.82 -25.37,8.54 -36.7,10.76 -11.61,2.83 -22.69,3.27 -33.04,1.09 -10.99,-2.36 -21.56,-7.56 -31.16,-15.39 -10.07,-8.02 -18.85,-18.47 -25.33,-30.99 -5.89,-12.52 -8.21,-25.8 -7.21,-39.09 2.19,-13.28 7.56,-26.6 15.34,-39.21 8.65,-12.48 19.14,-24.06 30.48,-33.81 11.67,-9.13 23.71,-15.93 35.21,-19.44"
       stroke-dasharray="5, 3"
       transform="rotate(72.72,400,400)"
       opacity="0.32"
       id="path20"
       style="stroke:url(#linearGradient44)" />
    <path
       d="m 373.42,295.77 c 9.95,-2.03 18.69,-0.88 26.11,2.89 7.62,4.66 14.37,11.63 20.39,20.14 6.89,9.02 13.79,19.22 20.67,29.79 8.27,10.75 16.71,21.63 24.55,31.89 8.52,10.26 14.65,18.85 17.96,25.63 2.37,9.47 -9.43,21.65 -21.81,25.63 -9.17,3.5 -19.75,6.68 -31.16,9.35 -11.41,4.05 -22.53,7 -33.02,8.6 -10.67,2.15 -21.02,2.3 -30.76,0.31 -10.16,-2.03 -19.91,-6.43 -28.71,-13.08 -9.06,-6.77 -16.93,-15.7 -22.78,-26.52 -5.37,-10.83 -7.73,-22.44 -7.28,-34.13 1.32,-11.64 5.35,-23.34 11.48,-34.38 6.79,-10.87 15.27,-20.91 24.64,-29.32 9.63,-7.86 19.77,-13.73 29.72,-16.8"
       stroke-dasharray="6, 8"
       transform="rotate(76.76,400,400)"
       opacity="0.28"
       id="path21"
       style="stroke:url(#linearGradient45)" />
    <path
       d="m 370.54,306.15 c 8.47,-1.85 16.21,-1.09 23.09,1.84 7.05,3.6 13.59,9.13 19.62,16.01 6.66,7.26 13.3,15.58 19.77,24.33 7.41,8.88 14.76,17.97 21.39,26.68 7.11,8.7 12.22,16.15 15.05,22.2 2.4,8.59 -5.98,20.59 -15.7,24.81 -7.28,3.39 -16,6.35 -25.73,8.69 -9.73,3.34 -19.51,5.6 -28.94,6.67 -9.53,1.51 -18.91,1.39 -27.79,-0.46 -9.12,-1.81 -17.85,-5.56 -25.68,-11.16 -7.96,-5.67 -14.87,-13.17 -20.02,-22.34 -4.81,-9.17 -7.1,-19.06 -7.08,-29.05 0.63,-9.93 3.5,-19.91 8.16,-29.29 5.14,-9.21 11.77,-17.68 19.32,-24.74 7.72,-6.61 16.08,-11.56 24.54,-14.19"
       stroke-dasharray="4, 3"
       transform="rotate(80.8,400,400)"
       opacity="0.24"
       id="path22"
       style="stroke:url(#linearGradient46)" />
    <path
       d="m 369.5,316.53 c 7.03,-1.63 13.74,-1.19 19.94,0.99 6.33,2.66 12.41,6.88 18.13,12.22 6.15,5.63 12.25,12.19 18.06,19.17 6.41,7.09 12.6,14.46 18.04,21.66 7.83,10.34 14.41,26.42 12.65,32.28 -2.1,3.89 -6.03,7.14 -11.51,9.7 -5.62,3.13 -12.58,5.79 -20.62,7.78 -8.04,2.67 -16.34,4.33 -24.5,4.95 -8.21,0.97 -16.38,0.61 -24.15,-1.11 -7.88,-1.65 -15.42,-4.83 -22.15,-9.48 -6.77,-4.68 -12.64,-10.85 -17.06,-18.39 -4.16,-7.54 -6.31,-15.69 -6.59,-23.93 0.11,-8.18 2.03,-16.38 5.43,-24.07 3.71,-7.53 8.71,-14.43 14.6,-20.16 6,-5.38 12.69,-9.42 19.73,-11.61"
       stroke-dasharray="6, 4"
       transform="rotate(84.84,400,400)"
       opacity="0.2"
       id="path23"
       style="stroke:url(#linearGradient47)" />
    <path
       d="m 370.35,326.91 c 11.28,-2.38 22.53,1.46 32.46,9.19 10.96,8.47 21.85,19.8 30.13,31.24 9.11,11.44 12.51,20.75 10.13,27.13 -2.98,7.16 -11.52,12.7 -24.23,15.48 -12.71,4.49 -26.85,5.13 -39.68,1.91 -12.97,-2.93 -24.74,-10.6 -32.1,-22.52 -6.68,-11.93 -7.07,-25.58 -2.52,-37.68 5.24,-11.6 14.52,-20.91 25.81,-24.75"
       stroke-dasharray="5, 2"
       transform="rotate(88.88,400,400)"
       opacity="0.16"
       id="path24"
       style="stroke:url(#linearGradient48)" />
    <path
       d="m 373.04,337.29 c 8.52,-1.97 17.57,0.49 25.78,5.83 8.74,5.75 17.21,13.79 23.38,22.35 6.63,8.55 9.08,15.97 7.42,21.4 -1.9,5.89 -7.91,10.48 -17.3,12.7 -9.38,3.16 -20.16,3.24 -30.04,0.49 -9.87,-2.53 -18.83,-8.42 -24.48,-17.25 -5.26,-8.83 -5.98,-18.81 -3.03,-27.56 3.27,-8.42 9.75,-15.15 18.27,-17.96"
       stroke-dasharray="9, 4"
       transform="rotate(92.92,400,400)"
       opacity="0.13"
       id="path25"
       style="stroke:url(#linearGradient49)" />
    <path
       d="m 377.41,347.67 c 11.49,-2.48 26.18,5.95 34.06,17.35 8.67,11.39 5.87,21.49 -6.43,24.17 -12.31,4.33 -28.71,-0.54 -36.51,-12.19 -7.08,-11.66 -2.62,-25.32 8.88,-29.33"
       stroke-dasharray="6, 3"
       transform="rotate(96.96,400,400)"
       opacity="0.09"
       id="path26"
       style="stroke:url(#linearGradient50)" />
  </g>
  <text
     xml:space="preserve"
     style="font-style:normal;font-variant:normal;font-weight:normal;font-stretch:normal;font-size:64px;font-family:'Century Gothic';-inkscape-font-specification:'Century Gothic';text-align:start;writing-mode:lr-tb;direction:ltr;text-anchor:start;fill:#000000;fill-opacity:1"
     x="172.83313"
     y="725.48517"
     id="text51"><tspan
       sodipodi:role="line"
       id="tspan51"
       x="172.83313"
       y="725.48517">spectrumSense</tspan></text>
</svg>
